<svg width="242" height="97" viewBox="0 0 242 97" fill="none" xmlns="http://www.w3.org/2000/svg">
<g clip-path="url(#clip0_92_93)">
<path d="M52.1294 95.0578L52.7489 95.9557C53.5135 97.064 55.0178 97.3326 56.1087 96.5557L60.3404 93.542C61.4312 92.7651 61.6956 91.2369 60.931 90.1286L60.3115 89.2307L52.1294 95.0578Z" fill="#FA9D00"/>
<path d="M55.4608 84.4878L49.3945 88.808L52.1168 92.7537L58.1831 88.4335L55.4608 84.4878Z" fill="#212222"/>
<path d="M45.6001 70.1961C44.8354 69.0876 43.5598 68.656 42.751 69.2322L39.6136 71.4664C38.8049 72.0426 38.7692 73.4078 39.5338 74.5163L40.7401 76.2643L46.8063 71.9441L45.6001 70.1961Z" fill="#212222"/>
<path d="M51.6688 78.9912L45.6025 83.3114L48.3248 87.2569L54.3911 82.9366L51.6688 78.9912Z" fill="#212222"/>
<path d="M47.8763 73.4949L41.8101 77.8151L44.5324 81.7604L50.5986 77.4402L47.8763 73.4949Z" fill="#212222"/>
<path d="M45.4572 44.937L38.7511 34.9984C37.7587 36.0132 36.8292 37.0725 35.9651 38.1401L42.1197 47.2618C43.1562 48.764 43.2945 50.6709 42.5054 52.2729L39.0921 59.1985C37.9636 61.4876 37.4653 63.516 37.5992 65.2637C36.5666 64.7733 35.2133 64.4375 33.4418 64.4375C32.8365 64.4375 32.2089 64.4752 31.5775 64.55L24.0048 65.4486C23.8207 65.4702 23.6334 65.4806 23.4481 65.4806C21.8872 65.4806 20.4204 64.7049 19.5238 63.4059L5.33361 42.3755C4.24141 40.7919 3.83047 38.9133 4.15246 37.0512C4.47491 35.1884 5.49161 33.5652 7.01575 32.4802L18.2242 24.4972C19.4029 23.658 20.7824 23.2139 22.214 23.2139C24.4893 23.2139 26.6263 24.3422 27.9299 26.2305L31.9307 32.1603C32.6931 30.8115 33.5114 29.5713 34.3346 28.4532L31.2428 23.8709C27.751 18.8104 20.8825 17.584 15.9014 21.1313L4.69293 29.1135C-0.288152 32.6612 -1.49552 39.6392 1.99619 44.6997L16.2106 65.7658C18.0751 68.4679 21.2478 69.9137 24.474 69.5312L32.0459 68.6335C33.5039 68.4608 35.8825 68.4413 36.725 69.6626L37.4188 70.668L42.6558 66.9386L41.9621 65.9329C41.1195 64.7119 42.0534 62.3722 42.7106 61.0387L46.1233 54.113C47.5774 51.1624 47.3216 47.6391 45.4572 44.937Z" fill="#FA9D00"/>
<mask id="mask0_92_93" style="mask-type:luminance" maskUnits="userSpaceOnUse" x="7" y="26" width="33" height="37">
<path d="M23.4479 62.1916C22.9418 62.1916 22.4655 61.9395 22.1739 61.5171L8.00349 40.5156C7.38818 39.6235 7.16573 38.6319 7.34036 37.6203C7.51303 36.623 8.05718 35.7543 8.87278 35.1738L20.0824 27.1897C20.7135 26.7401 21.4508 26.5024 22.2138 26.5024C23.4349 26.5024 24.5808 27.1062 25.2794 28.1186L39.4495 49.1211C39.8178 49.655 39.8708 50.2724 39.6104 50.8008L36.1975 57.7258C35.6063 58.9254 35.1555 60.088 34.8461 61.2096C34.3901 61.1687 33.9218 61.1486 33.4417 61.1486C32.7107 61.1486 31.9575 61.1936 31.2032 61.2827L23.6293 62.1819C23.5712 62.1883 23.5092 62.1916 23.4479 62.1916Z" fill="white"/>
</mask>
<g mask="url(#mask0_92_93)">
<path opacity="0.51" d="M12.9065 76.7793L8.40723 76.0253L19.0357 10.5762L23.5349 11.3302L12.9065 76.7793Z" fill="#BD7D06"/>
</g>
<mask id="mask1_92_93" style="mask-type:luminance" maskUnits="userSpaceOnUse" x="7" y="26" width="33" height="37">
<path d="M23.4479 62.1916C22.9418 62.1916 22.4655 61.9395 22.1739 61.5171L8.00349 40.5156C7.38818 39.6235 7.16573 38.6319 7.34036 37.6203C7.51303 36.623 8.05718 35.7543 8.87278 35.1738L20.0824 27.1897C20.7135 26.7401 21.4508 26.5024 22.2138 26.5024C23.4349 26.5024 24.5808 27.1062 25.2794 28.1186L39.4495 49.1211C39.8178 49.655 39.8708 50.2724 39.6104 50.8008L36.1975 57.7258C35.6063 58.9254 35.1555 60.088 34.8461 61.2096C34.3901 61.1687 33.9218 61.1486 33.4417 61.1486C32.7107 61.1486 31.9575 61.1936 31.2032 61.2827L23.6293 62.1819C23.5712 62.1883 23.5092 62.1916 23.4479 62.1916Z" fill="white"/>
</mask>
<g mask="url(#mask1_92_93)">
<path opacity="0.51" d="M21.5481 78.7295L15.4321 77.7044L26.0605 12.2554L32.1765 13.2805L21.5481 78.7295Z" fill="#BD7C05"/>
</g>
<path d="M203.3 25.3168L202.625 24.444L211.481 31.5975C211.481 31.5975 212.16 32.1288 212.85 31.5975L224.798 19.4924L224.199 20.4072L224.981 19.6184L212.293 37.221L202.625 24.7654L203.3 25.3168Z" fill="url(#paint0_linear_92_93)"/>
<path d="M224.204 20.4092L217.117 30.2281L215.479 32.4972V32.4974L215.477 32.4994L215.477 32.4997L215.201 32.8821L215.063 33.073L215.063 33.0733L212.66 36.4023C212.637 36.4015 212.615 36.4006 212.592 36.3995C212.565 36.3984 212.538 36.397 212.512 36.3956C212.47 36.3933 212.427 36.3908 212.386 36.3883C212.371 36.3872 212.356 36.3863 212.341 36.3852C212.308 36.383 212.276 36.3807 212.244 36.3782C212.222 36.3768 212.201 36.3751 212.179 36.3732C212.131 36.3695 212.084 36.3653 212.036 36.3608C211.996 36.3572 211.955 36.3533 211.914 36.3491C211.901 36.3477 211.887 36.3463 211.874 36.3449L208.18 31.5862L203.329 25.335L211.052 31.5898L211.481 31.9373C211.481 31.9373 212.149 32.423 212.828 31.9373L213.465 31.2925L224.204 20.4092Z" fill="url(#paint1_linear_92_93)"/>
<path d="M217.117 30.2283L215.479 32.4973V32.4976L215.478 32.4996L215.477 32.4998L215.201 32.8823L215.064 33.0732L215.063 33.0735L212.66 36.4024C212.638 36.4016 212.615 36.4008 212.592 36.3996C212.565 36.3985 212.539 36.3971 212.512 36.3957C212.47 36.3935 212.428 36.391 212.386 36.3884C212.371 36.3873 212.356 36.3865 212.341 36.3854C212.309 36.3831 212.276 36.3809 212.244 36.3784C212.223 36.377 212.201 36.3753 212.179 36.3733C212.132 36.3697 212.084 36.3655 212.037 36.361C211.996 36.3574 211.955 36.3534 211.915 36.3493C211.901 36.3479 211.888 36.3465 211.874 36.3451L208.181 31.5863C209.134 31.6639 210.096 31.6572 211.052 31.59L211.481 31.9374C211.481 31.9374 212.149 32.4231 212.829 31.9374L213.465 31.2927C214.718 31.0676 215.951 30.7246 217.117 30.2283Z" fill="url(#paint2_linear_92_93)"/>
<path d="M209.461 34.1807L211.045 36.2258C210.986 36.2154 210.927 36.2045 210.868 36.1931C210.834 36.1866 210.8 36.1799 210.767 36.1732C210.764 36.1726 210.761 36.1721 210.757 36.1712C210.724 36.1645 210.69 36.1575 210.657 36.1508C210.581 36.1345 210.504 36.1175 210.428 36.1001C210.398 36.0928 210.367 36.0858 210.337 36.0786C210.232 36.0536 210.127 36.027 210.023 35.9988C209.988 35.9895 209.953 35.98 209.918 35.9705C209.848 35.951 209.778 35.9306 209.708 35.9099C209.685 35.9031 209.663 35.8963 209.64 35.8895C209.579 35.8709 209.518 35.852 209.457 35.8326C209.428 35.8233 209.4 35.8137 209.371 35.8043C209.329 35.7907 209.288 35.777 209.247 35.763C209.213 35.7514 209.18 35.7399 209.146 35.7281C209.111 35.7157 209.076 35.7031 209.041 35.6904C208.98 35.6685 208.92 35.6462 208.859 35.6234C208.84 35.616 208.82 35.6085 208.801 35.601C204.129 33.8038 200.807 29.2159 200.807 23.8394C200.807 23.5715 200.815 23.3052 200.831 23.0415L207.383 31.4987L208.133 32.4668L209.461 34.1807Z" fill="url(#paint3_linear_92_93)"/>
<path d="M223.738 19.7491C220.603 22.9283 212.741 30.9009 212.492 31.154C212.18 31.4703 211.821 31.154 211.821 31.154L202.103 23.2771L202.01 23.2015L200.9 22.3026L200.898 22.3048C201.643 16.0845 206.859 11.2661 213.183 11.2661C218.294 11.2661 222.682 14.414 224.569 18.9056C224.444 19.0324 224.295 19.1841 224.124 19.3574C224.005 19.4778 223.876 19.6088 223.738 19.7491Z" fill="url(#paint4_linear_92_93)"/>
<path d="M225.559 23.8396C225.559 30.7333 220.098 36.3313 213.331 36.412L215.178 33.8509L215.658 33.186L216.54 31.9626L218.133 29.7537L224.93 20.329L224.973 20.0658L224.986 20.0555C224.986 20.0546 224.986 20.0541 224.986 20.0532C224.987 20.0538 224.987 20.0543 224.987 20.0549L224.988 20.0543C225.185 20.6887 225.333 21.3449 225.429 22.0185C225.452 22.1764 225.472 22.3354 225.488 22.4953C225.489 22.4961 225.489 22.497 225.489 22.4978C225.493 22.5376 225.497 22.5776 225.5 22.6173C225.504 22.6577 225.508 22.698 225.511 22.7383C225.515 22.7786 225.518 22.8189 225.521 22.8592C225.524 22.8998 225.527 22.9401 225.53 22.9807C225.532 23.0138 225.534 23.0471 225.536 23.0801C225.537 23.098 225.538 23.1159 225.539 23.1341C225.541 23.1638 225.542 23.1935 225.544 23.2232C225.546 23.2733 225.548 23.3231 225.55 23.3732C225.552 23.4169 225.553 23.4609 225.554 23.5048C225.554 23.5157 225.555 23.5269 225.555 23.5381C225.556 23.5782 225.557 23.6185 225.557 23.6588C225.557 23.6669 225.557 23.6753 225.557 23.6837C225.558 23.7355 225.559 23.7876 225.559 23.8396Z" fill="url(#paint5_linear_92_93)"/>
<path d="M212.112 14.4498C211.537 14.4968 210.971 14.5889 210.419 14.7233C206.376 15.7056 203.063 18.9442 202.102 23.2771L202.009 23.2015C202.309 17.7003 206.459 13.2454 211.767 12.564C211.778 12.6062 211.789 12.6485 211.8 12.6908C211.951 13.2711 212.054 13.8593 212.112 14.4498Z" fill="url(#paint6_linear_92_93)"/>
<path d="M213.183 12.47C212.938 12.47 212.696 12.4808 212.455 12.4965C212.725 13.1199 212.94 13.7619 213.095 14.4161C213.701 14.4211 214.315 14.4737 214.933 14.5826C215.144 14.6199 215.352 14.665 215.559 14.7137L216.16 12.88C215.212 12.6146 214.214 12.47 213.183 12.47Z" fill="url(#paint7_linear_92_93)"/>
<path d="M209.461 34.181L211.045 36.2261C210.986 36.2157 210.927 36.2048 210.868 36.1933C210.834 36.1869 210.8 36.1802 210.766 36.1734C210.764 36.1729 210.761 36.1723 210.757 36.1715C210.724 36.1648 210.69 36.1578 210.657 36.151C210.58 36.1348 210.504 36.1177 210.428 36.1004C210.397 36.0931 210.367 36.0861 210.337 36.0788C210.232 36.0536 210.127 36.027 210.022 35.999C209.987 35.9898 209.953 35.9803 209.918 35.9707C206.521 35.0284 203.708 32.6519 202.144 29.5222C203.089 30.1913 204.15 30.7022 205.254 31.0396C205.951 31.2526 206.663 31.4021 207.383 31.499L208.133 32.4671L209.461 34.181Z" fill="url(#paint8_linear_92_93)"/>
<path d="M225.559 23.8396C225.559 30.7333 220.098 36.3313 213.331 36.412L215.178 33.8509L215.658 33.186L216.54 31.9626L218.133 29.7537C218.492 29.5659 218.842 29.361 219.183 29.1384C222.263 27.1258 224.284 23.7212 224.986 20.0555C224.986 20.0546 224.986 20.0541 224.986 20.0532C224.987 20.0538 224.987 20.0543 224.987 20.0549C225.184 20.6893 225.333 21.3452 225.429 22.0185C225.452 22.1764 225.471 22.3354 225.488 22.4953C225.489 22.4961 225.489 22.497 225.489 22.4978C225.493 22.5376 225.497 22.5776 225.5 22.6173C225.504 22.6577 225.508 22.698 225.511 22.7383C225.515 22.7786 225.518 22.8189 225.521 22.8592C225.524 22.8998 225.527 22.9401 225.53 22.9807C225.532 23.0138 225.534 23.0471 225.536 23.0801C225.537 23.098 225.538 23.1159 225.539 23.1341C225.541 23.1638 225.542 23.1935 225.544 23.2232C225.546 23.2733 225.548 23.3231 225.55 23.3732C225.552 23.4169 225.553 23.4609 225.554 23.5048C225.554 23.5157 225.555 23.5269 225.555 23.5381C225.556 23.5782 225.557 23.6185 225.557 23.6588C225.557 23.6669 225.557 23.6753 225.557 23.6837C225.558 23.7355 225.559 23.7876 225.559 23.8396Z" fill="url(#paint9_linear_92_93)"/>
<path d="M211.081 22.2954C212.242 22.2954 213.183 21.4344 213.183 20.3722C213.183 19.31 212.242 18.449 211.081 18.449C209.921 18.449 208.98 19.31 208.98 20.3722C208.98 21.4344 209.921 22.2954 211.081 22.2954Z" fill="url(#paint10_linear_92_93)"/>
<path d="M217.092 34.2338C216.28 34.455 215.503 34.2828 215.178 33.8508L215.658 33.1859L216.54 31.9625C216.574 31.9538 216.607 31.946 216.64 31.9387C216.677 31.9309 216.713 31.9236 216.749 31.9174C216.759 31.9158 216.769 31.9141 216.779 31.9124C216.798 31.909 216.818 31.9062 216.837 31.9034C216.863 31.8998 216.889 31.8965 216.914 31.8936C216.937 31.8911 216.959 31.889 216.981 31.8871C216.991 31.8863 217 31.8856 217.009 31.8849C217.022 31.884 217.034 31.8831 217.047 31.8823C217.058 31.8816 217.069 31.881 217.081 31.8805C217.091 31.88 217.1 31.8796 217.11 31.8793C217.123 31.8788 217.136 31.8784 217.149 31.8781C217.154 31.878 217.159 31.878 217.164 31.8779C217.853 31.8681 218.417 32.1513 218.543 32.6277C218.707 33.2517 218.058 33.9706 217.092 34.2338Z" fill="url(#paint11_linear_92_93)"/>
<path d="M218.399 32.3453C218.161 32.7244 217.687 33.0595 217.092 33.2216C216.559 33.3666 216.042 33.342 215.658 33.1858L216.54 31.9624C216.574 31.9537 216.607 31.9458 216.64 31.9386C216.677 31.9307 216.713 31.9234 216.749 31.9173C216.759 31.9156 216.769 31.9139 216.779 31.9122C216.798 31.9089 216.817 31.9061 216.837 31.9033C216.863 31.8996 216.889 31.8963 216.914 31.8935C217.557 31.8213 218.128 31.9965 218.399 32.3453Z" fill="url(#paint12_radial_92_93)"/>
<path d="M213.183 28.3908C213.183 29.3372 212.344 30.1043 211.31 30.1043C210.276 30.1043 209.438 29.3372 209.438 28.3908C209.438 27.4444 210.276 26.6772 211.31 26.6772C212.344 26.6772 213.183 27.4444 213.183 28.3908Z" fill="url(#paint13_linear_92_93)"/>
<path d="M209.694 27.5283C209.532 27.7818 209.438 28.0758 209.438 28.3906C209.438 28.9737 209.757 29.488 210.243 29.7975C210.405 29.5441 210.499 29.2501 210.499 28.9353C210.499 28.3522 210.18 27.8378 209.694 27.5283Z" fill="url(#paint14_radial_92_93)"/>
<path d="M222.841 28.5847C222.342 28.4548 222.146 27.5245 222.403 26.5068C222.66 25.4892 223.272 24.7695 223.771 24.8994C224.27 25.0294 224.467 25.9597 224.21 26.9774C223.953 27.995 223.34 28.7147 222.841 28.5847Z" fill="url(#paint15_linear_92_93)"/>
<path d="M224.123 19.3574C224.005 19.4777 223.875 19.6088 223.737 19.749C223.455 19.5315 223.077 19.0511 222.735 18.4489C222.218 17.539 221.979 16.6955 222.202 16.5645C222.425 16.4338 223.025 17.0653 223.542 17.9752C223.84 18.499 224.045 19.001 224.123 19.3574Z" fill="url(#paint16_linear_92_93)"/>
<path d="M209.461 34.1808C209.459 34.2785 209.433 34.3653 209.381 34.437C209.108 34.8197 208.208 34.629 207.371 34.0109C206.535 33.393 206.079 32.582 206.353 32.1993C206.602 31.8516 207.368 31.9773 208.133 32.4669L209.461 34.1808Z" fill="url(#paint17_linear_92_93)"/>
<path d="M212.132 22.0359C212.712 22.0359 213.183 21.291 213.183 20.3721C213.183 19.4532 212.712 18.7083 212.132 18.7083C211.551 18.7083 211.081 19.4532 211.081 20.3721C211.081 21.291 211.551 22.0359 212.132 22.0359Z" fill="url(#paint18_radial_92_93)"/>
<path d="M205.457 21.2161C205.168 22.3634 204.451 23.1678 203.856 23.0128C203.26 22.8578 203.013 21.8022 203.302 20.6549C203.592 19.5077 204.309 18.7033 204.904 18.8582C205.499 19.0132 205.747 20.0688 205.457 21.2161Z" fill="url(#paint19_linear_92_93)"/>
<path d="M213.575 13.6293C213.64 14.25 212.865 14.8426 211.844 14.9529C210.822 15.0633 209.942 14.6496 209.877 14.0289C209.812 13.4082 210.587 12.8157 211.608 12.7053C212.63 12.595 213.51 13.0087 213.575 13.6293Z" fill="url(#paint20_linear_92_93)"/>
<path d="M212.84 14.029C212.859 14.2077 212.947 14.3684 213.085 14.5052C213.417 14.2622 213.609 13.9499 213.575 13.6295C213.557 13.4508 213.469 13.2901 213.331 13.1533C212.998 13.3963 212.807 13.7086 212.84 14.029Z" fill="url(#paint21_linear_92_93)"/>
<path d="M220.354 20.3091C220.715 21.2708 220.363 22.3004 219.568 22.6089C218.772 22.9174 217.834 22.3879 217.473 21.4262C217.112 20.4646 217.464 19.4349 218.259 19.1265C219.055 18.818 219.993 19.3475 220.354 20.3091Z" fill="url(#paint22_linear_92_93)"/>
<path d="M136.48 3.4055C149.557 3.4055 162.293 4.2559 174.216 5.88558C174.438 5.91609 175.098 6.02774 174.88 5.97738C94.4693 -12.6544 52.2339 18.2215 52.2339 18.2215C54.7323 17.0847 57.3992 15.998 60.2298 14.9655C80.669 7.51066 107.749 3.4055 136.48 3.4055Z" fill="#F5F5F5"/>
<path d="M136.48 9.17847C78.2043 9.17847 30.9673 26.4032 30.9673 47.6645C30.9673 47.9933 30.9754 48.3306 30.9997 48.6594C32.4725 31.7223 79.1349 18.1321 136.48 18.1321C159.681 18.1321 181.131 20.3572 198.55 24.1281C198.462 23.4382 198.412 22.7363 198.412 22.022C198.412 20.1699 198.721 18.3926 199.284 16.7349C181.735 11.9873 160.008 9.17847 136.48 9.17847Z" fill="#F5F5F5"/>
<path d="M228.801 29.0146C228.119 30.4634 227.231 31.7933 226.177 32.9655C235.748 37.544 241.465 42.908 241.968 48.6593C241.992 48.3305 242 47.9932 242 47.6643C242 40.8967 237.207 34.5391 228.801 29.0146Z" fill="#F5F5F5"/>
<path opacity="0.4" d="M23.4504 62.1918C22.948 62.1918 22.4752 61.9397 22.1857 61.5173L8.11882 40.5158C7.50801 39.6237 7.28719 38.6321 7.46055 37.6205C7.63196 36.6233 8.17212 35.7545 8.98177 35.174L20.1095 27.19C20.736 26.7403 21.4679 26.5027 22.2253 26.5027C23.4375 26.5027 24.575 27.1064 25.2686 28.1189L39.3351 49.1213C39.7007 49.6552 39.7533 50.2726 39.4948 50.801L36.1068 57.726C35.52 58.9256 35.0724 60.0882 34.7653 61.2098C34.3126 61.1689 33.8477 61.1488 33.3712 61.1488C32.6455 61.1488 31.8978 61.1938 31.149 61.2829L23.6305 62.1821C23.5728 62.1885 23.5112 62.1918 23.4504 62.1918Z" fill="#FA9D00"/>
</g>
<defs>
<linearGradient id="paint0_linear_92_93" x1="209.501" y1="34.6241" x2="223.551" y2="22.2742" gradientUnits="userSpaceOnUse">
<stop stop-color="#FFC903"/>
<stop offset="1" stop-color="#FBF75C"/>
</linearGradient>
<linearGradient id="paint1_linear_92_93" x1="213.766" y1="36.4023" x2="213.766" y2="20.4092" gradientUnits="userSpaceOnUse">
<stop stop-color="#FFC800"/>
<stop offset="1" stop-color="#FBF95F"/>
</linearGradient>
<linearGradient id="paint2_linear_92_93" x1="208.181" y1="33.3154" x2="217.117" y2="33.3154" gradientUnits="userSpaceOnUse">
<stop stop-color="#FFC800"/>
<stop offset="1" stop-color="#FBF95F"/>
</linearGradient>
<linearGradient id="paint3_linear_92_93" x1="205.926" y1="36.2258" x2="205.926" y2="23.0415" gradientUnits="userSpaceOnUse">
<stop stop-color="#FFC800"/>
<stop offset="1" stop-color="#FBF95F"/>
</linearGradient>
<linearGradient id="paint4_linear_92_93" x1="212.734" y1="31.2946" x2="212.734" y2="11.2661" gradientUnits="userSpaceOnUse">
<stop stop-color="#FFC800"/>
<stop offset="1" stop-color="#FBF95F"/>
</linearGradient>
<linearGradient id="paint5_linear_92_93" x1="219.445" y1="36.412" x2="219.445" y2="20.0532" gradientUnits="userSpaceOnUse">
<stop stop-color="#FFC800"/>
<stop offset="1" stop-color="#FBF95F"/>
</linearGradient>
<linearGradient id="paint6_linear_92_93" x1="202.009" y1="17.9205" x2="212.112" y2="17.9205" gradientUnits="userSpaceOnUse">
<stop stop-color="#FFC800"/>
<stop offset="1" stop-color="#FBFBDF"/>
</linearGradient>
<linearGradient id="paint7_linear_92_93" x1="212.455" y1="13.5919" x2="216.16" y2="13.5919" gradientUnits="userSpaceOnUse">
<stop stop-color="#FFC800"/>
<stop offset="1" stop-color="#FBF95F"/>
</linearGradient>
<linearGradient id="paint8_linear_92_93" x1="202.144" y1="32.8741" x2="211.045" y2="32.8741" gradientUnits="userSpaceOnUse">
<stop stop-color="#FFC800"/>
<stop offset="1" stop-color="#FBF95F"/>
</linearGradient>
<linearGradient id="paint9_linear_92_93" x1="213.331" y1="28.2326" x2="225.559" y2="28.2326" gradientUnits="userSpaceOnUse">
<stop stop-color="#FFC800"/>
<stop offset="1" stop-color="#FBF95F"/>
</linearGradient>
<linearGradient id="paint10_linear_92_93" x1="211.081" y1="22.2954" x2="211.081" y2="18.449" gradientUnits="userSpaceOnUse">
<stop stop-color="#BD7802"/>
<stop offset="1" stop-color="#C1A525"/>
</linearGradient>
<linearGradient id="paint11_linear_92_93" x1="216.873" y1="34.3303" x2="216.873" y2="31.8777" gradientUnits="userSpaceOnUse">
<stop stop-color="#BD7802"/>
<stop offset="1" stop-color="#C1A525"/>
</linearGradient>
<radialGradient id="paint12_radial_92_93" cx="0" cy="0" r="1" gradientUnits="userSpaceOnUse" gradientTransform="translate(217.028 32.5976) scale(1.09122 1.10863)">
<stop stop-color="#001545"/>
<stop offset="1" stop-color="#000B25"/>
</radialGradient>
<linearGradient id="paint13_linear_92_93" x1="211.31" y1="30.1043" x2="211.31" y2="26.6772" gradientUnits="userSpaceOnUse">
<stop stop-color="#BD7802"/>
<stop offset="1" stop-color="#C1A525"/>
</linearGradient>
<radialGradient id="paint14_radial_92_93" cx="0" cy="0" r="1" gradientUnits="userSpaceOnUse" gradientTransform="translate(209.969 28.6629) scale(0.874312 0.888258)">
<stop stop-color="#001545"/>
<stop offset="1" stop-color="#000B25"/>
</radialGradient>
<linearGradient id="paint15_linear_92_93" x1="223.306" y1="28.5999" x2="223.306" y2="24.8843" gradientUnits="userSpaceOnUse">
<stop stop-color="#BD7802"/>
<stop offset="1" stop-color="#C1A525"/>
</linearGradient>
<linearGradient id="paint16_linear_92_93" x1="223.121" y1="19.749" x2="223.121" y2="16.5474" gradientUnits="userSpaceOnUse">
<stop stop-color="#BD7802"/>
<stop offset="1" stop-color="#C1A525"/>
</linearGradient>
<linearGradient id="paint17_linear_92_93" x1="207.867" y1="34.6344" x2="207.867" y2="32.002" gradientUnits="userSpaceOnUse">
<stop stop-color="#BD7802"/>
<stop offset="1" stop-color="#C1A525"/>
</linearGradient>
<radialGradient id="paint18_radial_92_93" cx="0" cy="0" r="1" gradientUnits="userSpaceOnUse" gradientTransform="translate(212.132 20.3721) scale(1.37589 1.39783)">
<stop stop-color="#001545"/>
<stop offset="1" stop-color="#000B25"/>
</radialGradient>
<linearGradient id="paint19_linear_92_93" x1="204.38" y1="23.0319" x2="204.38" y2="18.8391" gradientUnits="userSpaceOnUse">
<stop stop-color="#BD7802"/>
<stop offset="1" stop-color="#C1A525"/>
</linearGradient>
<linearGradient id="paint20_linear_92_93" x1="211.726" y1="14.9707" x2="211.726" y2="12.6875" gradientUnits="userSpaceOnUse">
<stop stop-color="#BD7802"/>
<stop offset="1" stop-color="#C1A525"/>
</linearGradient>
<linearGradient id="paint21_linear_92_93" x1="213.208" y1="14.5052" x2="213.208" y2="13.1533" gradientUnits="userSpaceOnUse">
<stop stop-color="#BD7802"/>
<stop offset="1" stop-color="#C1A525"/>
</linearGradient>
<linearGradient id="paint22_linear_92_93" x1="218.913" y1="22.6968" x2="218.913" y2="19.0386" gradientUnits="userSpaceOnUse">
<stop stop-color="#BD7802"/>
<stop offset="1" stop-color="#C1A525"/>
</linearGradient>
<clipPath id="clip0_92_93">
<rect width="242" height="97" fill="white"/>
</clipPath>
</defs>
</svg>
