<?xml version="1.0" encoding="utf-8"?>
<!-- Generator: Adobe Illustrator 25.0.0, SVG Export Plug-In . SVG Version: 6.00 Build 0)  -->
<svg version="1.1" id="Layer_1" xmlns="http://www.w3.org/2000/svg" xmlns:xlink="http://www.w3.org/1999/xlink" x="0px" y="0px"
	 viewBox="0 0 512 512" style="enable-background:new 0 0 512 512;" xml:space="preserve">
<style type="text/css">
	.st0{fill:url(#SVGID_1_);}
	.st1{fill:url(#SVGID_2_);}
	.st2{fill:url(#SVGID_3_);}
	.st3{fill:url(#SVGID_4_);}
	.st4{fill:url(#SVGID_5_);}
	.st5{fill:url(#SVGID_6_);}
	.st6{fill:url(#SVGID_7_);}
	.st7{fill:url(#SVGID_8_);}
	.st8{fill:url(#SVGID_9_);}
	.st9{fill:url(#SVGID_10_);}
	.st10{fill:url(#SVGID_11_);}
	.st11{fill:url(#SVGID_12_);}
	.st12{fill:url(#SVGID_13_);}
	.st13{fill:url(#SVGID_14_);}
	.st14{fill:url(#SVGID_15_);}
	.st15{fill:url(#SVGID_16_);}
	.st16{fill:url(#SVGID_17_);}
	.st17{fill:url(#SVGID_18_);}
	.st18{fill:url(#SVGID_19_);}
	.st19{fill:url(#SVGID_20_);}
	.st20{fill:url(#SVGID_21_);}
	.st21{fill:url(#SVGID_22_);}
	.st22{fill:url(#SVGID_23_);}
</style>
<g>
	
		<linearGradient id="SVGID_1_" gradientUnits="userSpaceOnUse" x1="157.6285" y1="149.1742" x2="369.206" y2="338.1186" gradientTransform="matrix(1 0 0 -1 0 514)">
		<stop  offset="0" style="stop-color:#FFC903"/>
		<stop  offset="1" style="stop-color:#FBF75C"/>
	</linearGradient>
	<path class="st0" d="M105.0913,272.1301l-10.3185-13.1176l135.237,107.5197c0,0,10.3733,7.9857,20.9114,0l182.4374-181.9439
		l-9.1384,13.7487l11.9379-11.8555L242.4139,451.0553L94.7728,263.8428L105.0913,272.1301z"/>
	
		<linearGradient id="SVGID_2_" gradientUnits="userSpaceOnUse" x1="264.9161" y1="75.252" x2="264.9161" y2="315.6341" gradientTransform="matrix(1 0 0 -1 0 514)">
		<stop  offset="0" style="stop-color:#FFC800"/>
		<stop  offset="1" style="stop-color:#FBF95F"/>
	</linearGradient>
	<path class="st1" d="M424.3035,198.3659L316.0771,345.9478l-25.0114,34.1046v0.0042l-0.0255,0.0289l-0.0034,0.0042l-4.2129,5.7485
		l-2.1039,2.8691l-0.0042,0.0042L248.024,438.748c-0.3499-0.0128-0.6948-0.0255-1.0396-0.0425
		c-0.4128-0.017-0.8205-0.0374-1.229-0.0586c-0.6438-0.034-1.2876-0.0722-1.9272-0.1096c-0.2268-0.017-0.4544-0.0297-0.6812-0.0467
		c-0.4969-0.0331-0.9887-0.0671-1.4813-0.1045c-0.3279-0.0212-0.6608-0.0467-0.9887-0.0764
		c-0.7279-0.0544-1.4558-0.1172-2.1795-0.1852c-0.6234-0.0543-1.246-0.1129-1.8644-0.1766
		c-0.2106-0.0204-0.4128-0.0417-0.6183-0.0629l-56.398-71.5252l-74.088-93.957l117.9298,94.0114l6.5512,5.2227
		c0,0,10.2086,7.3003,20.581,0l9.7159-9.6913L424.3035,198.3659z"/>
	
		<linearGradient id="SVGID_3_" gradientUnits="userSpaceOnUse" x1="179.616" y1="121.6487" x2="316.0771" y2="121.6487" gradientTransform="matrix(1 0 0 -1 0 514)">
		<stop  offset="0" style="stop-color:#FFC800"/>
		<stop  offset="1" style="stop-color:#FBF95F"/>
	</linearGradient>
	<path class="st2" d="M316.0771,345.9512l-25.0114,34.1046v0.0042l-0.0255,0.0297l-0.0042,0.0042l-4.212,5.7477l-2.1039,2.87
		l-0.0042,0.0042l-36.6927,50.0354c-0.3491-0.0128-0.6939-0.0247-1.0396-0.0416c-0.4119-0.017-0.8205-0.0382-1.2282-0.0594
		c-0.6438-0.0331-1.2876-0.0714-1.9272-0.1096c-0.2276-0.0161-0.4544-0.0289-0.682-0.0458c-0.496-0.034-0.9887-0.0671-1.4804-0.1053
		c-0.3287-0.0212-0.6608-0.0458-0.9895-0.0756c-0.7279-0.0552-1.4558-0.1181-2.1795-0.1852
		c-0.6226-0.0543-1.2452-0.1138-1.8635-0.1766c-0.2106-0.0213-0.4128-0.0425-0.6192-0.0629l-56.398-71.5252
		c14.5514,1.1653,29.2446,1.0643,43.8418,0.0544l6.552,5.2219c0,0,10.2077,7.3011,20.5802,0l9.7159-9.6904
		C279.4472,358.5668,298.2735,353.412,316.0771,345.9512z"/>
	
		<linearGradient id="SVGID_4_" gradientUnits="userSpaceOnUse" x1="145.1885" y1="77.9003" x2="145.1885" y2="276.0654" gradientTransform="matrix(1 0 0 -1 0 514)">
		<stop  offset="0" style="stop-color:#FFC800"/>
		<stop  offset="1" style="stop-color:#FBF95F"/>
	</linearGradient>
	<path class="st3" d="M199.1642,405.3611l24.1959,30.7386c-0.9054-0.1554-1.8057-0.3194-2.7018-0.4918
		c-0.5173-0.0968-1.0354-0.1979-1.5527-0.299c-0.0424-0.0085-0.0883-0.017-0.1393-0.0298c-0.5088-0.101-1.0218-0.2064-1.5357-0.3075
		c-1.1653-0.2437-2.3307-0.5002-3.4969-0.761c-0.4629-0.1096-0.9258-0.2149-1.3878-0.3245
		c-1.6079-0.3745-3.2115-0.7738-4.8015-1.1993c-0.5343-0.1385-1.0651-0.282-1.5909-0.4247
		c-1.0744-0.293-2.1429-0.5997-3.2098-0.9114c-0.3474-0.101-0.6939-0.203-1.0405-0.3066c-0.9326-0.2786-1.8644-0.5623-2.791-0.8553
		c-0.4417-0.1384-0.8808-0.2828-1.3216-0.4255c-0.6294-0.2039-1.2588-0.4103-1.8856-0.6201
		c-0.5164-0.1733-1.0328-0.3474-1.5475-0.5249c-0.5368-0.1852-1.0719-0.3754-1.6062-0.5657
		c-0.9267-0.3287-1.8499-0.6651-2.7698-1.0082c-0.2973-0.1113-0.5954-0.2225-0.8935-0.3355
		C117.745,399.6958,67.017,330.739,67.017,249.9276c0-4.0269,0.1261-8.0291,0.3744-11.9931L167.442,365.0501l11.4495,14.5505
		L199.1642,405.3611z"/>
	
		<linearGradient id="SVGID_5_" gradientUnits="userSpaceOnUse" x1="249.1432" y1="152.0204" x2="249.1432" y2="453.0553" gradientTransform="matrix(1 0 0 -1 0 514)">
		<stop  offset="0" style="stop-color:#FFC800"/>
		<stop  offset="1" style="stop-color:#FBF95F"/>
	</linearGradient>
	<path class="st4" d="M417.1688,188.447c-47.8687,47.7846-167.9183,167.6159-171.7226,171.4193c-4.7547,4.7548-10.2502,0-10.2502,0
		L86.8021,241.4739l-1.4224-1.1356L68.443,226.8265l-0.0294,0.034c11.3741-93.4944,91.0239-165.9158,187.586-165.9158
		c78.0475,0,145.0448,47.3131,173.8732,114.8238c-1.9145,1.906-4.195,4.1865-6.8043,6.7915
		C421.2551,184.3692,419.2812,186.3389,417.1688,188.447z"/>
	
		<linearGradient id="SVGID_6_" gradientUnits="userSpaceOnUse" x1="351.6256" y1="75.1068" x2="351.6256" y2="320.9842" gradientTransform="matrix(1 0 0 -1 0 514)">
		<stop  offset="0" style="stop-color:#FFC800"/>
		<stop  offset="1" style="stop-color:#FBF95F"/>
	</linearGradient>
	<path class="st5" d="M444.983,249.9268c0,103.6143-83.3866,187.7544-186.7148,188.9664l28.205-38.4933l7.3224-9.9937
		l13.4735-18.3888l24.325-33.2001l103.7953-141.6567l0.6566-3.9555l0.1937-0.1563c0.0042-0.0127,0.0042-0.0204,0.0085-0.0331
		c0.0043,0.0085,0.0043,0.017,0.0085,0.0246l0.0077-0.0077c3.0127,9.535,5.2813,19.3979,6.7456,29.5223
		c0.3491,2.3731,0.6523,4.7633,0.9004,7.1653c0.0042,0.0128,0.0042,0.0255,0.0042,0.0382c0.0629,0.5971,0.1266,1.1993,0.1809,1.7964
		c0.0586,0.6064,0.118,1.2121,0.1682,1.8176c0.0543,0.6065,0.1053,1.2121,0.1512,1.8185c0.0467,0.6098,0.0892,1.2155,0.1308,1.8261
		c0.034,0.496,0.0671,0.9972,0.0968,1.4932c0.017,0.2701,0.034,0.5393,0.0459,0.8129c0.0255,0.4459,0.0467,0.8918,0.0722,1.3378
		c0.0331,0.7534,0.0671,1.5025,0.0926,2.2551c0.0246,0.6566,0.0458,1.3174,0.0628,1.9782c0.0042,0.1639,0.0085,0.3321,0.0128,0.5003
		c0.017,0.6022,0.0255,1.2078,0.0339,1.8142c0.0042,0.1215,0.0042,0.248,0.0042,0.3746
		C444.9796,248.3614,444.983,249.1445,444.983,249.9268z"/>
	
		<linearGradient id="SVGID_7_" gradientUnits="userSpaceOnUse" x1="85.3792" y1="353.0354" x2="239.6476" y2="353.0354" gradientTransform="matrix(1 0 0 -1 0 514)">
		<stop  offset="0" style="stop-color:#FFC800"/>
		<stop  offset="1" style="stop-color:#FBFBDF"/>
	</linearGradient>
	<path class="st6" d="M239.6476,108.7977c-8.7859,0.707-17.4248,2.0913-25.8573,4.1111
		c-61.7253,14.7653-112.3245,63.4416-126.9887,128.5668l-1.4223-1.1365c4.5739-82.6842,67.9446-149.6437,148.9963-159.8855
		c0.1767,0.6353,0.3448,1.2708,0.5088,1.9062C237.1861,91.0826,238.7557,99.9234,239.6476,108.7977z"/>
	
		<linearGradient id="SVGID_8_" gradientUnits="userSpaceOnUse" x1="244.8763" y1="418.0983" x2="301.4654" y2="418.0983" gradientTransform="matrix(1 0 0 -1 0 514)">
		<stop  offset="0" style="stop-color:#FFC800"/>
		<stop  offset="1" style="stop-color:#FBF95F"/>
	</linearGradient>
	<path class="st7" d="M256.0004,79.0394c-3.7415,0-7.443,0.1626-11.1242,0.3994c4.1296,9.3688,7.4107,19.0194,9.7754,28.8522
		c9.2632,0.0742,18.6377,0.8649,28.064,2.5022c3.2293,0.5605,6.4076,1.2385,9.5605,1.9709l9.1893-27.5617
		C286.9836,81.2137,271.7494,79.0394,256.0004,79.0394z"/>
	
		<linearGradient id="SVGID_9_" gradientUnits="userSpaceOnUse" x1="87.4332" y1="128.281" x2="223.3592" y2="128.281" gradientTransform="matrix(1 0 0 -1 0 514)">
		<stop  offset="0" style="stop-color:#FFC800"/>
		<stop  offset="1" style="stop-color:#FBF95F"/>
	</linearGradient>
	<path class="st8" d="M199.1642,405.3611l24.1951,30.7386c-0.9046-0.1554-1.8007-0.3194-2.701-0.4918
		c-0.5181-0.0968-1.0354-0.1979-1.5527-0.299c-0.0424-0.0085-0.0883-0.017-0.1393-0.0298c-0.5088-0.101-1.0226-0.2064-1.5357-0.3075
		c-1.1653-0.2437-2.3315-0.5002-3.4969-0.761c-0.4629-0.1096-0.9258-0.2149-1.3887-0.3245c-1.607-0.3788-3.2106-0.778-4.8006-1.1993
		c-0.5351-0.1385-1.0651-0.2812-1.5909-0.4247c-51.87-14.1632-94.8367-49.8842-118.7204-96.9239
		c14.4328,10.0565,30.6415,17.7365,47.4983,22.8064c10.6417,3.2021,21.5146,5.4495,32.5097,6.9054l11.4495,14.5505
		L199.1642,405.3611z"/>
	
		<linearGradient id="SVGID_10_" gradientUnits="userSpaceOnUse" x1="258.2682" y1="198.0455" x2="444.983" y2="198.0455" gradientTransform="matrix(1 0 0 -1 0 514)">
		<stop  offset="0" style="stop-color:#FFC800"/>
		<stop  offset="1" style="stop-color:#FBF95F"/>
	</linearGradient>
	<path class="st9" d="M444.983,249.9268c0,103.6143-83.3866,187.7544-186.7148,188.9664l28.205-38.4933l7.3224-9.9937
		l13.4735-18.3888l24.325-33.2001c5.4784-2.8233,10.8311-5.9031,16.0318-9.2487c47.0312-30.2502,77.8921-81.4221,88.6137-136.5197
		c0.0042-0.0127,0.0042-0.0204,0.0085-0.0331c0.0043,0.0085,0.0043,0.017,0.0085,0.0246c3.0042,9.535,5.2805,19.3945,6.7533,29.5147
		c0.3448,2.3731,0.6438,4.7633,0.9004,7.1653c0.0042,0.0128,0.0042,0.0255,0.0042,0.0382c0.0629,0.5971,0.1266,1.1993,0.1809,1.7964
		c0.0594,0.6064,0.118,1.2121,0.1682,1.8176c0.0543,0.6065,0.1053,1.2121,0.1512,1.8185c0.0467,0.6098,0.0892,1.2155,0.1308,1.8261
		c0.034,0.496,0.0671,0.9972,0.0968,1.4932c0.017,0.2701,0.034,0.5393,0.0459,0.8129c0.0255,0.4459,0.0467,0.8918,0.0722,1.3378
		c0.0331,0.7534,0.0671,1.5025,0.0926,2.2551c0.0255,0.6566,0.0458,1.3174,0.0628,1.9782c0.0042,0.1639,0.0085,0.3321,0.0128,0.5003
		c0.017,0.6022,0.0255,1.2078,0.0339,1.8142c0.0042,0.1215,0.0042,0.248,0.0042,0.3746
		C444.9796,248.3614,444.983,249.1445,444.983,249.9268z"/>
	
		<linearGradient id="SVGID_11_" gradientUnits="userSpaceOnUse" x1="223.9109" y1="287.283" x2="223.9109" y2="345.0969" gradientTransform="matrix(1 0 0 -1 0 514)">
		<stop  offset="0" style="stop-color:#BD7802"/>
		<stop  offset="1" style="stop-color:#C1A525"/>
	</linearGradient>
	<path class="st10" d="M223.9105,226.717c17.7229,0,32.09-12.9418,32.09-28.9074c0-15.9647-14.3671-28.9065-32.09-28.9065
		c-17.7221,0-32.0891,12.9418-32.0891,28.9065C191.8214,213.7752,206.1884,226.717,223.9105,226.717z"/>
	
		<linearGradient id="SVGID_12_" gradientUnits="userSpaceOnUse" x1="312.3552" y1="106.3927" x2="312.3552" y2="143.2561" gradientTransform="matrix(1 0 0 -1 0 514)">
		<stop  offset="0" style="stop-color:#BD7802"/>
		<stop  offset="1" style="stop-color:#C1A525"/>
	</linearGradient>
	<path class="st11" d="M315.7008,406.1577c-12.4008,3.3236-24.2749,0.7356-29.2276-5.757l7.3215-9.9937l13.4735-18.3879
		c0.513-0.1308,1.0226-0.248,1.5314-0.3576c0.5555-0.118,1.1068-0.2276,1.658-0.3202c0.152-0.0247,0.3032-0.0501,0.4544-0.0756
		c0.299-0.0501,0.5937-0.0926,0.8842-0.1342c0.3992-0.0552,0.795-0.1053,1.1866-0.1478c0.3414-0.0374,0.682-0.0696,1.0209-0.0985
		c0.1427-0.0119,0.2854-0.0221,0.4272-0.0323c0.192-0.0144,0.3831-0.028,0.5742-0.0399c0.1741-0.0102,0.3474-0.0195,0.5207-0.0272
		c0.1486-0.0068,0.2964-0.0127,0.4442-0.0178c0.1987-0.0068,0.3975-0.0136,0.5954-0.0179c0.0747-0.0017,0.1495-0.0017,0.2242-0.0025
		c10.5287-0.1478,19.1379,4.1084,21.0575,11.2694C340.363,391.3966,330.4449,402.2023,315.7008,406.1577z"/>
	
		<radialGradient id="SVGID_13_" cx="146.0504" cy="338.274" r="8.4937" gradientTransform="matrix(1.9618 0 0 -1.9618 28.2023 1045.1969)" gradientUnits="userSpaceOnUse">
		<stop  offset="0" style="stop-color:#001545"/>
		<stop  offset="1" style="stop-color:#000B25"/>
	</radialGradient>
	<path class="st12" d="M335.6592,377.7727c-3.6404,5.6976-10.8778,10.7343-19.9576,13.1703
		c-8.1386,2.1795-16.0369,1.8091-21.9069-0.5385l13.4735-18.3888c0.5139-0.13,1.0226-0.248,1.5323-0.3576
		c0.5555-0.1172,1.1067-0.2268,1.6571-0.3194c0.152-0.0255,0.3032-0.051,0.4544-0.0756c0.2947-0.051,0.5894-0.0926,0.8842-0.135
		c0.4001-0.0544,0.795-0.1053,1.1866-0.1469C322.7998,369.8957,331.51,372.5296,335.6592,377.7727z"/>
	
		<linearGradient id="SVGID_14_" gradientUnits="userSpaceOnUse" x1="227.4095" y1="169.914" x2="227.4095" y2="221.4239" gradientTransform="matrix(1 0 0 -1 0 514)">
		<stop  offset="0" style="stop-color:#BD7802"/>
		<stop  offset="1" style="stop-color:#C1A525"/>
	</linearGradient>
	<path class="st13" d="M256.0004,318.3306c0,14.2244-12.8008,25.7554-28.5906,25.7554c-15.7906,0-28.5914-11.531-28.5914-25.7554
		c0-14.2235,12.8008-25.7545,28.5914-25.7545C243.1996,292.5761,256.0004,304.1071,256.0004,318.3306z"/>
	
		<radialGradient id="SVGID_15_" cx="121.5269" cy="328.1177" r="8.4937" gradientTransform="matrix(1.5718 0 0 -1.5718 15.8999 838.1798)" gradientUnits="userSpaceOnUse">
		<stop  offset="0" style="stop-color:#001545"/>
		<stop  offset="1" style="stop-color:#000B25"/>
	</radialGradient>
	<path class="st14" d="M202.7306,305.3744c-2.4716,3.8103-3.9122,8.2287-3.9122,12.9597c0,8.7646,4.8703,16.4955,12.2955,21.1476
		c2.4708-3.8103,3.9113-8.2287,3.9113-12.9597C215.0252,317.7573,210.1558,310.0263,202.7306,305.3744z"/>
	
		<linearGradient id="SVGID_16_" gradientUnits="userSpaceOnUse" x1="410.5923" y1="192.5223" x2="410.5923" y2="248.3694" gradientTransform="matrix(1 0 0 -1 0 514)">
		<stop  offset="0" style="stop-color:#BD7802"/>
		<stop  offset="1" style="stop-color:#C1A525"/>
	</linearGradient>
	<path class="st15" d="M403.494,321.2499c-7.6197-1.9527-10.618-15.9358-6.6982-31.2312
		c3.9207-15.2963,13.2756-26.113,20.8953-24.1603c7.6188,1.9536,10.6179,15.9359,6.6973,31.2321
		C420.4677,312.3859,411.1128,323.2026,403.494,321.2499z"/>
	
		<linearGradient id="SVGID_17_" gradientUnits="userSpaceOnUse" x1="407.7626" y1="325.5538" x2="407.7626" y2="373.6759" gradientTransform="matrix(1 0 0 -1 0 514)">
		<stop  offset="0" style="stop-color:#BD7802"/>
		<stop  offset="1" style="stop-color:#C1A525"/>
	</linearGradient>
	<path class="st16" d="M423.0685,182.5592c-1.8134,1.8091-3.7873,3.7788-5.8997,5.887
		c-4.3003-3.2701-10.082-10.4905-15.3081-19.5414c-7.8932-13.6757-11.5336-26.3539-8.1251-28.3232
		c3.4043-1.965,12.5647,7.5281,20.463,21.2038C418.7427,169.6582,421.8777,177.2022,423.0685,182.5592z"/>
	
		<linearGradient id="SVGID_18_" gradientUnits="userSpaceOnUse" x1="174.8285" y1="101.8237" x2="174.8285" y2="141.3899" gradientTransform="matrix(1 0 0 -1 0 514)">
		<stop  offset="0" style="stop-color:#BD7802"/>
		<stop  offset="1" style="stop-color:#C1A525"/>
	</linearGradient>
	<path class="st17" d="M199.1642,405.3594c-0.0331,1.4685-0.4289,2.7732-1.2112,3.8502c-4.1831,5.7519-17.9259,2.887-30.697-6.4042
		c-12.7702-9.287-19.7305-21.4771-15.5476-27.229c3.8-5.2262,15.4975-3.3372,27.1822,4.0226L199.1642,405.3594z"/>
	
		<radialGradient id="SVGID_19_" cx="89.3709" cy="439.9645" r="8.4936" gradientTransform="matrix(2.4736 0 0 -2.4736 18.8872 1286.1057)" gradientUnits="userSpaceOnUse">
		<stop  offset="0" style="stop-color:#001545"/>
		<stop  offset="1" style="stop-color:#000B25"/>
	</radialGradient>
	<path class="st18" d="M239.955,222.8175c8.8615,0,16.0445-11.1964,16.0445-25.0079c0-13.8116-7.1831-25.0079-16.0445-25.0079
		c-8.8615,0-16.0446,11.1964-16.0446,25.0079C223.9105,211.6212,231.0936,222.8175,239.955,222.8175z"/>
	
		<linearGradient id="SVGID_20_" gradientUnits="userSpaceOnUse" x1="121.5753" y1="276.2089" x2="121.5753" y2="339.2288" gradientTransform="matrix(1 0 0 -1 0 514)">
		<stop  offset="0" style="stop-color:#BD7802"/>
		<stop  offset="1" style="stop-color:#C1A525"/>
	</linearGradient>
	<path class="st19" d="M138.03,210.4983c-4.4198,17.2439-15.3696,29.3346-24.4571,27.0056
		c-9.0878-2.3298-12.8717-18.196-8.4523-35.4399c4.4198-17.2439,15.3696-29.3346,24.4571-27.0056
		C138.6655,177.3882,142.4497,193.2544,138.03,210.4983z"/>
	
		<linearGradient id="SVGID_21_" gradientUnits="userSpaceOnUse" x1="233.7555" y1="397.3705" x2="233.7555" y2="431.6884" gradientTransform="matrix(1 0 0 -1 0 514)">
		<stop  offset="0" style="stop-color:#BD7802"/>
		<stop  offset="1" style="stop-color:#C1A525"/>
	</linearGradient>
	<path class="st20" d="M261.9919,96.4679c0.9921,9.3288-10.8456,18.2356-26.44,19.8939
		c-15.5952,1.6584-29.0407-4.5597-30.0328-13.8884s10.8456-18.2356,26.44-19.8941
		C247.5535,80.9209,260.9998,87.139,261.9919,96.4679z"/>
	
		<linearGradient id="SVGID_22_" gradientUnits="userSpaceOnUse" x1="256.3792" y1="404.3728" x2="256.3792" y2="424.6919" gradientTransform="matrix(1 0 0 -1 0 514)">
		<stop  offset="0" style="stop-color:#BD7802"/>
		<stop  offset="1" style="stop-color:#C1A525"/>
	</linearGradient>
	<path class="st21" d="M250.7666,102.4704c0.2854,2.6856,1.6299,5.1005,3.7338,7.1569c5.0784-3.6517,8.0027-8.3462,7.4914-13.1623
		c-0.2862-2.6856-1.6299-5.1005-3.7338-7.1569C253.1797,92.9597,250.2545,97.6543,250.7666,102.4704z"/>
	
		<linearGradient id="SVGID_23_" gradientUnits="userSpaceOnUse" x1="343.507" y1="281.2458" x2="343.507" y2="336.2298" gradientTransform="matrix(1 0 0 -1 0 514)">
		<stop  offset="0" style="stop-color:#BD7802"/>
		<stop  offset="1" style="stop-color:#C1A525"/>
	</linearGradient>
	<path class="st22" d="M365.5017,196.8668c5.5167,14.4545,0.1418,29.93-12.0058,34.5667
		c-12.1476,4.6359-26.4671-3.3219-31.9838-17.7764c-5.5166-14.4537-0.1418-29.93,12.0058-34.5659
		C345.6656,174.4545,359.9851,182.4131,365.5017,196.8668z"/>
</g>
<g>
</g>
<g>
</g>
<g>
</g>
<g>
</g>
<g>
</g>
<g>
</g>
<g>
</g>
<g>
</g>
<g>
</g>
<g>
</g>
<g>
</g>
<g>
</g>
<g>
</g>
<g>
</g>
<g>
</g>
</svg>
