<svg width="198" height="203" viewBox="0 0 198 203" fill="none" xmlns="http://www.w3.org/2000/svg">
<path d="M41.5552 106.535L37.6017 101.511L89.4176 142.688C89.4176 142.688 93.3921 145.746 97.4297 142.688L167.331 73.0093L163.829 78.2746L168.403 73.7344L94.1702 175.057L37.6017 103.361L41.5552 106.535Z" fill="url(#paint0_linear_92_167)"/>
<path d="M163.861 78.2855L122.395 134.804L112.812 147.865V147.867L112.802 147.878L112.8 147.88L111.186 150.081L110.38 151.18L110.379 151.182L96.3199 170.344C96.1861 170.339 96.0539 170.334 95.9217 170.328C95.7637 170.321 95.6073 170.313 95.4509 170.305C95.2043 170.292 94.9576 170.278 94.7125 170.263C94.6254 170.257 94.5384 170.252 94.4514 170.245C94.2611 170.233 94.0725 170.22 93.8839 170.205C93.7581 170.197 93.6307 170.187 93.505 170.176C93.2261 170.155 92.9471 170.131 92.6698 170.105C92.4312 170.084 92.1926 170.062 91.9556 170.038C91.875 170.03 91.7976 170.021 91.7186 170.013L70.1098 142.622L41.7231 106.639L86.9077 142.643L89.418 144.642C89.418 144.642 93.3292 147.438 97.3034 144.642L101.026 140.931L163.861 78.2855Z" fill="url(#paint1_linear_92_167)"/>
<path d="M122.395 134.804L112.812 147.865V147.867L112.802 147.878L112.8 147.88L111.187 150.081L110.38 151.18L110.379 151.182L96.3201 170.344C96.1862 170.339 96.0541 170.334 95.9218 170.328C95.7638 170.321 95.6075 170.313 95.4511 170.305C95.2044 170.292 94.9577 170.278 94.7126 170.263C94.6256 170.257 94.5385 170.252 94.4515 170.245C94.2612 170.233 94.0726 170.22 93.884 170.205C93.7582 170.197 93.6308 170.187 93.5051 170.176C93.2262 170.155 92.9473 170.131 92.6699 170.105C92.4313 170.084 92.1927 170.062 91.9558 170.038C91.8752 170.03 91.7977 170.021 91.7187 170.013L70.11 142.622C75.6851 143.068 81.315 143.029 86.9079 142.643L89.4181 144.642C89.4181 144.642 93.3293 147.438 97.3036 144.642L101.026 140.931C108.36 139.636 115.573 137.662 122.395 134.804Z" fill="url(#paint2_linear_92_167)"/>
<path d="M112.812 147.867L112.802 147.878L112.8 147.88L111.186 150.081L110.38 151.18C110.601 150.585 110.929 149.999 111.349 149.435C111.406 149.359 111.464 149.283 111.523 149.209C111.583 149.134 111.644 149.059 111.707 148.985C111.751 148.932 111.796 148.881 111.843 148.829C111.872 148.795 111.901 148.763 111.931 148.731C111.978 148.679 112.026 148.628 112.075 148.576C112.084 148.565 112.094 148.553 112.105 148.542C112.128 148.518 112.154 148.492 112.178 148.468C112.292 148.349 112.412 148.233 112.536 148.117C112.581 148.075 112.628 148.033 112.673 147.991C112.718 147.949 112.765 147.909 112.812 147.867Z" fill="url(#paint3_linear_92_167)"/>
<path d="M112.536 148.117C112.623 148.038 112.71 147.957 112.8 147.88L111.187 150.081C111.133 150.02 111.082 149.959 111.032 149.896C111.428 149.277 111.935 148.678 112.536 148.117Z" fill="url(#paint4_radial_92_167)"/>
<path d="M77.5996 157.557L86.8699 169.329C86.5233 169.269 86.1783 169.206 85.8349 169.14C85.6366 169.103 85.4383 169.065 85.24 169.026C85.2238 169.023 85.2061 169.019 85.1867 169.015C84.9917 168.976 84.7949 168.936 84.5983 168.897C84.1517 168.804 83.7051 168.705 83.2585 168.605C83.0812 168.563 82.9038 168.523 82.7265 168.481C82.1106 168.338 81.4963 168.185 80.8869 168.022C80.6822 167.969 80.479 167.914 80.2775 167.859C79.8658 167.747 79.4562 167.63 79.0475 167.51C78.9145 167.471 78.7817 167.432 78.6491 167.393C78.2915 167.286 77.9348 167.177 77.5795 167.065C77.4103 167.012 77.242 166.957 77.0733 166.902C76.8319 166.824 76.591 166.745 76.3508 166.665C76.1528 166.598 75.955 166.532 75.7578 166.464C75.5521 166.393 75.3471 166.32 75.1422 166.247C74.7873 166.121 74.4336 165.992 74.0812 165.861C73.9671 165.818 73.8529 165.776 73.7389 165.733C46.4037 155.387 26.9673 128.979 26.9673 98.0312C26.9673 96.489 27.0156 94.9565 27.1107 93.4385L65.4449 142.119L69.8318 147.692L77.5996 157.557Z" fill="url(#paint5_linear_92_167)"/>
<path d="M161.128 74.486C142.787 92.7859 96.7899 138.677 95.3324 140.134C93.5106 141.955 91.405 140.134 91.405 140.134L34.5479 94.7937L34.003 94.3586L27.5137 89.1842L27.5024 89.1971C31.8604 53.3919 62.3783 25.657 99.3759 25.657C129.28 25.657 154.95 43.7763 165.995 69.6307C165.262 70.3607 164.388 71.2341 163.388 72.2316C162.693 72.9245 161.937 73.6787 161.128 74.486Z" fill="url(#paint6_linear_92_167)"/>
<path d="M171.785 98.0311C171.785 137.712 139.835 169.935 100.245 170.399L111.052 155.657L113.857 151.83L119.019 144.788L128.34 132.073L168.109 77.8234L168.36 76.3086L168.434 76.249C168.436 76.2441 168.436 76.2409 168.438 76.2361C168.439 76.2393 168.439 76.2425 168.441 76.2457L168.444 76.2425C169.598 79.8941 170.467 83.6714 171.029 87.5486C171.162 88.4574 171.278 89.3727 171.374 90.2929C171.375 90.2977 171.375 90.3026 171.375 90.3074C171.399 90.5362 171.424 90.7667 171.445 90.9955C171.467 91.2275 171.49 91.4596 171.509 91.6916C171.53 91.9237 171.549 92.1557 171.567 92.3878C171.585 92.6215 171.601 92.8535 171.617 93.0872C171.63 93.2773 171.643 93.4691 171.654 93.6592C171.661 93.7624 171.667 93.8655 171.672 93.9702C171.682 94.1411 171.69 94.3119 171.699 94.4827C171.712 94.7711 171.725 95.058 171.735 95.3464C171.744 95.5978 171.752 95.8508 171.759 96.1038C171.761 96.1667 171.762 96.2311 171.764 96.2956C171.77 96.526 171.773 96.7581 171.777 96.9901C171.778 97.0368 171.778 97.0852 171.778 97.1335C171.783 97.4317 171.785 97.7314 171.785 98.0311Z" fill="url(#paint7_linear_92_167)"/>
<path d="M93.111 43.9824C89.7447 44.2531 86.4348 44.7833 83.2039 45.5568C59.5539 51.2115 40.1667 69.8529 34.5482 94.7936L34.0032 94.3585C35.7557 62.6932 60.036 37.0499 91.0909 33.1276C91.1586 33.3709 91.2231 33.6142 91.286 33.8576C92.1678 37.1981 92.7692 40.5838 93.111 43.9824Z" fill="url(#paint8_linear_92_167)"/>
<path d="M99.376 32.5869C97.9425 32.5869 96.5244 32.6492 95.1138 32.7399C96.6961 36.3278 97.9532 40.0237 98.8593 43.7893C102.409 43.8177 106 44.1206 109.612 44.7476C110.849 44.9622 112.067 45.2219 113.275 45.5024L116.796 34.9472C111.247 33.4196 105.41 32.5869 99.376 32.5869Z" fill="url(#paint9_linear_92_167)"/>
<path d="M77.5994 157.557L86.8697 169.329C86.5231 169.269 86.1797 169.206 85.8347 169.14C85.6364 169.103 85.4381 169.064 85.2398 169.026C85.2236 169.023 85.2059 169.019 85.1865 169.015C84.9915 168.976 84.7947 168.936 84.5981 168.897C84.1515 168.803 83.7049 168.705 83.2583 168.605C83.081 168.563 82.9036 168.523 82.7263 168.481C82.1104 168.336 81.4961 168.183 80.8867 168.022C80.682 167.969 80.4788 167.914 80.2773 167.859C60.4032 162.435 43.9407 148.755 34.7897 130.741C40.3196 134.592 46.5299 137.533 52.9886 139.475C57.0659 140.701 61.2319 141.562 65.4447 142.119L69.8316 147.692L77.5994 157.557Z" fill="url(#paint10_linear_92_167)"/>
<path d="M171.785 98.0311C171.785 137.712 139.835 169.935 100.245 170.399L111.052 155.657L113.857 151.83L119.019 144.788L128.34 132.073C130.439 130.992 132.49 129.813 134.482 128.531C152.502 116.947 164.326 97.3495 168.434 76.249C168.436 76.2441 168.436 76.2409 168.438 76.2361C168.439 76.2393 168.439 76.2425 168.441 76.2457C169.592 79.8973 170.464 83.673 171.029 87.5486C171.161 88.4574 171.275 89.3728 171.374 90.2929C171.375 90.2977 171.375 90.3026 171.375 90.3074C171.399 90.5362 171.424 90.7667 171.445 90.9955C171.467 91.2275 171.49 91.4596 171.509 91.6917C171.53 91.9237 171.549 92.1557 171.567 92.3878C171.585 92.6215 171.601 92.8535 171.617 93.0872C171.63 93.2773 171.643 93.4691 171.654 93.6592C171.661 93.7624 171.667 93.8655 171.672 93.9702C171.682 94.1411 171.69 94.3119 171.699 94.4827C171.712 94.7711 171.725 95.058 171.735 95.3464C171.744 95.5978 171.752 95.8508 171.759 96.1038C171.761 96.1667 171.762 96.2311 171.764 96.2956C171.77 96.526 171.773 96.7581 171.777 96.9901C171.778 97.0369 171.778 97.0852 171.778 97.1336C171.783 97.4317 171.785 97.7314 171.785 98.0311Z" fill="url(#paint11_linear_92_167)"/>
<path d="M87.0805 89.1427C93.8709 89.1427 99.3756 84.1864 99.3756 78.0724C99.3756 71.9584 93.8709 67.0021 87.0805 67.0021C80.2901 67.0021 74.7854 71.9584 74.7854 78.0724C74.7854 84.1864 80.2901 89.1427 87.0805 89.1427Z" fill="url(#paint12_linear_92_167)"/>
<path d="M122.25 157.862C117.499 159.135 112.949 158.144 111.052 155.657L113.857 151.83L119.019 144.788C119.216 144.738 119.411 144.693 119.606 144.651C119.819 144.606 120.03 144.564 120.241 144.528C120.299 144.519 120.357 144.509 120.415 144.499C120.53 144.48 120.643 144.464 120.754 144.448C120.907 144.427 121.059 144.408 121.209 144.391C121.34 144.377 121.47 144.365 121.6 144.354C121.655 144.349 121.709 144.345 121.764 144.341C121.837 144.336 121.911 144.33 121.984 144.326C122.05 144.322 122.117 144.319 122.183 144.315C122.24 144.313 122.297 144.311 122.353 144.309C122.429 144.306 122.506 144.303 122.581 144.302C122.61 144.301 122.639 144.301 122.668 144.301C126.701 144.244 130 145.874 130.735 148.617C131.699 152.209 127.899 156.347 122.25 157.862Z" fill="url(#paint13_linear_92_167)"/>
<path d="M129.897 146.992C128.502 149.174 125.729 151.103 122.25 152.036C119.132 152.871 116.106 152.729 113.857 151.83L119.019 144.788C119.216 144.738 119.411 144.693 119.606 144.651C119.819 144.606 120.03 144.564 120.241 144.528C120.299 144.518 120.357 144.509 120.415 144.499C120.528 144.48 120.641 144.464 120.754 144.448C120.907 144.427 121.059 144.407 121.209 144.391C124.97 143.975 128.307 144.984 129.897 146.992Z" fill="url(#paint14_radial_92_167)"/>
<path d="M99.3758 124.228C99.3758 129.675 94.4712 134.091 88.4212 134.091C82.3712 134.091 77.4667 129.675 77.4667 124.228C77.4667 118.781 82.3712 114.365 88.4212 114.365C94.4712 114.365 99.3758 118.781 99.3758 124.228Z" fill="url(#paint15_linear_92_167)"/>
<path d="M78.9654 119.265C78.0186 120.724 77.4667 122.416 77.4667 124.228C77.4667 127.584 79.3326 130.545 82.1775 132.327C83.1243 130.867 83.6762 129.175 83.6762 127.363C83.6762 124.007 81.8103 121.046 78.9654 119.265Z" fill="url(#paint16_radial_92_167)"/>
<path d="M155.888 125.345C152.968 124.597 151.819 119.242 153.322 113.385C154.824 107.527 158.408 103.384 161.327 104.132C164.247 104.88 165.396 110.235 163.893 116.093C162.391 121.951 158.807 126.093 155.888 125.345Z" fill="url(#paint17_linear_92_167)"/>
<path d="M163.388 72.2315C162.693 72.9244 161.937 73.6786 161.128 74.4859C159.48 73.2338 157.265 70.4686 155.262 67.0023C152.238 61.765 150.843 56.9097 152.149 56.1555C153.453 55.403 156.963 59.0384 159.989 64.2757C161.731 67.2907 162.932 70.1801 163.388 72.2315Z" fill="url(#paint18_linear_92_167)"/>
<path d="M77.5994 157.557C77.5865 158.119 77.435 158.619 77.1351 159.031C75.5325 161.234 70.267 160.137 65.3738 156.579C60.4807 153.022 57.814 148.354 59.4166 146.151C60.8725 144.15 65.3545 144.873 69.8316 147.692L77.5994 157.557Z" fill="url(#paint19_linear_92_167)"/>
<path d="M93.2282 87.6497C96.6234 87.6497 99.3758 83.3618 99.3758 78.0725C99.3758 72.7831 96.6234 68.4952 93.2282 68.4952C89.833 68.4952 87.0807 72.7831 87.0807 78.0725C87.0807 83.3618 89.833 87.6497 93.2282 87.6497Z" fill="url(#paint20_radial_92_167)"/>
<path d="M54.1756 82.9303C52.4822 89.534 48.2867 94.1643 44.8049 93.2723C41.3229 92.3803 39.8731 86.3039 41.5664 79.7001C43.2598 73.0963 47.4552 68.466 50.9371 69.3581C54.4191 70.2501 55.869 76.3265 54.1756 82.9303Z" fill="url(#paint21_linear_92_167)"/>
<path d="M101.671 39.2606C102.052 42.8332 97.5158 46.2442 91.5408 46.8793C85.5657 47.5144 80.4139 45.1331 80.0337 41.5605C79.6537 37.9879 84.1893 34.5769 90.1643 33.9418C96.1394 33.3067 101.291 35.688 101.671 39.2606Z" fill="url(#paint22_linear_92_167)"/>
<path d="M97.3705 41.5605C97.4798 42.589 97.9949 43.5138 98.801 44.3013C100.747 42.9029 101.868 41.105 101.671 39.2606C101.562 38.2321 101.047 37.3073 100.241 36.5198C98.2951 37.9182 97.1742 39.7161 97.3705 41.5605Z" fill="url(#paint23_linear_92_167)"/>
<path d="M141.331 77.7106C143.445 83.246 141.386 89.1727 136.731 90.9484C132.077 92.7239 126.59 89.6761 124.477 84.1407C122.363 78.6053 124.422 72.6786 129.077 70.903C133.731 69.1273 139.218 72.1753 141.331 77.7106Z" fill="url(#paint24_linear_92_167)"/>
<path d="M12.4964 88.6036L0.142456 86.299L1.04463 81.4676C1.21891 80.5339 1.54351 79.7683 2.01828 79.1707C2.49313 78.5732 3.07415 78.1572 3.76151 77.9222C4.44879 77.6874 5.20167 77.6463 6.01965 77.7989C6.83771 77.9516 7.5231 78.2637 8.07552 78.7355C8.6281 79.2074 9.01608 79.8102 9.23947 80.5435C9.46287 81.2771 9.48636 82.1162 9.31002 83.0608L8.71733 86.2349L6.65278 85.8498L7.18202 83.0155C7.27488 82.5183 7.26542 82.0864 7.15372 81.7196C7.04202 81.3529 6.84693 81.0577 6.56827 80.8343C6.2897 80.6107 5.94594 80.4608 5.53683 80.3846C5.12227 80.3072 4.74753 80.3231 4.41252 80.4322C4.07767 80.5412 3.79327 80.7468 3.55946 81.0491C3.32573 81.3514 3.16186 81.7541 3.06798 82.2567L2.71366 84.1544L12.9699 86.0677L12.4964 88.6036Z" fill="url(#paint25_linear_92_167)"/>
<path d="M4.45242 68.4553L16.4156 72.303L15.625 74.7587L3.66187 70.911L4.45242 68.4553Z" fill="url(#paint26_linear_92_167)"/>
<path d="M20.6472 62.4447C20.1635 63.4532 19.4996 64.246 18.6553 64.8232C17.8111 65.4002 16.8454 65.7105 15.7584 65.7536C14.6713 65.7968 13.5169 65.5256 12.295 64.9401C11.0679 64.3521 10.1302 63.6193 9.48181 62.7414C8.83338 61.8637 8.47054 60.9138 8.39321 59.8919C8.31588 58.8702 8.5165 57.86 8.99545 56.8616C9.3065 56.2128 9.6877 55.6523 10.1388 55.1796C10.5899 54.7072 11.0937 54.3392 11.6502 54.0761C12.2067 53.8131 12.8021 53.6637 13.4366 53.6279C14.071 53.5923 14.7283 53.6845 15.4085 53.9043L14.2819 56.2533C13.9407 56.1586 13.6108 56.1251 13.2919 56.1529C12.9729 56.181 12.675 56.2626 12.3981 56.3978C12.1212 56.5332 11.8715 56.719 11.6491 56.955C11.4267 57.1914 11.2364 57.4742 11.0784 57.8036C10.7916 58.4016 10.6902 58.9966 10.7742 59.5884C10.8583 60.1803 11.1222 60.7321 11.5657 61.2438C12.0093 61.7554 12.6292 62.2022 13.4252 62.5835C14.2314 62.9697 14.9736 63.1744 15.6518 63.1969C16.3299 63.2196 16.9205 63.0772 17.4234 62.7697C17.9262 62.4623 18.3211 62.0094 18.608 61.4114C18.7635 61.0871 18.8625 60.7636 18.9049 60.4412C18.9473 60.1188 18.9366 59.8065 18.8724 59.5047C18.8084 59.2028 18.6873 58.919 18.5093 58.6529C18.3314 58.3869 18.0998 58.1482 17.8145 57.9367L18.9412 55.5877C19.4599 55.9235 19.9011 56.336 20.2652 56.8251C20.6292 57.3143 20.8986 57.861 21.0733 58.465C21.2481 59.0694 21.3053 59.7074 21.2448 60.3796C21.1843 61.0519 20.9851 61.7403 20.6472 62.4447Z" fill="url(#paint27_linear_92_167)"/>
<path d="M25.2994 53.4269L15.0964 46.0931L16.6033 43.9988L19.3971 46.0069L21.9727 47.8998L23.0126 48.6057L26.8062 51.3326L25.2994 53.4269ZM24.1408 50.2577L22.0797 48.7762C21.8779 48.3058 21.6962 47.8534 21.5344 47.4187C21.3727 46.9841 21.2221 46.5365 21.0824 46.076C20.9426 45.6157 20.8014 45.1092 20.6587 44.5566L19.5185 39.9468L21.3553 37.3939L23.2361 45.2773L23.0651 45.414L24.1408 50.2577ZM29.8643 47.0822L23.0743 46.8018L22.4467 44.3674L31.6321 44.6252L29.8643 47.0822Z" fill="url(#paint28_linear_92_167)"/>
<path d="M34.6276 41.3403L25.7156 32.4839L27.5353 30.6544L34.9161 37.9893L38.7875 34.0973L40.3187 35.619L34.6276 41.3403Z" fill="url(#paint29_linear_92_167)"/>
<path d="M43.8623 32.5638L36.365 22.4826L43.2289 17.3828L44.517 19.1149L39.7244 22.6757L41.5157 25.0844L45.9428 21.7951L47.2057 23.4933L42.7787 26.7826L44.6455 29.2926L49.4448 25.7268L50.7329 27.4589L43.8623 32.5638Z" fill="url(#paint30_linear_92_167)"/>
<path d="M54.9029 24.8278L49.0953 13.6882L53.5309 11.3779C54.3436 10.9547 55.0879 10.7222 55.7638 10.6806C56.4396 10.6394 57.0284 10.7621 57.5299 11.0489C58.0314 11.336 58.4277 11.7586 58.7187 12.3168C58.9447 12.7504 59.0575 13.1765 59.057 13.595C59.0564 14.0136 58.9599 14.4061 58.7674 14.7726C58.5747 15.1391 58.3074 15.4685 57.9652 15.7608L58.0159 15.8578C58.4552 15.6546 58.9171 15.5677 59.4017 15.5972C59.8863 15.6268 60.3447 15.7795 60.7769 16.055C61.2091 16.3306 61.5668 16.74 61.8501 17.2831C62.1593 17.8764 62.2907 18.4813 62.2445 19.0978C62.1982 19.7146 61.9592 20.305 61.5272 20.869C61.0952 21.4331 60.4578 21.9345 59.6152 22.3733L54.9029 24.8278ZM53.8088 17.1651L55.6638 16.199C55.993 16.0275 56.2548 15.8183 56.4493 15.5712C56.6439 15.3241 56.7569 15.0545 56.7885 14.7624C56.8201 14.4702 56.7593 14.1771 56.6059 13.8831C56.3902 13.4694 56.0715 13.2107 55.6498 13.1072C55.228 13.0036 54.7529 13.0895 54.2243 13.3648L52.3394 14.3465L53.8088 17.1651ZM56.2137 21.7778L58.2258 20.73C58.879 20.3898 59.2946 20.0102 59.4724 19.591C59.6502 19.1722 59.6261 18.7458 59.4001 18.3121C59.2363 17.998 59.0174 17.7604 58.743 17.5991C58.4687 17.4379 58.1568 17.3626 57.8075 17.3734C57.4579 17.3843 57.0913 17.4897 56.7074 17.6897L54.643 18.765L56.2137 21.7778Z" fill="url(#paint31_linear_92_167)"/>
<path d="M67.0498 18.7849L67.3641 5.50381L70.5631 4.48682L78.5758 15.1207L75.8429 15.9896L72.0894 10.8134C71.6204 10.1369 71.1281 9.40132 70.6128 8.60666C70.0974 7.81217 69.5395 6.93524 68.9393 5.97608L69.5019 5.79723C69.5717 6.92516 69.6334 7.96265 69.687 8.90984C69.7406 9.85703 69.7725 10.736 69.7826 11.5467L69.7505 17.9264L67.0498 18.7849ZM68.7581 15.2252L68.142 13.2891L74.5079 11.2653L75.124 13.2015L68.7581 15.2252Z" fill="url(#paint32_linear_92_167)"/>
<path d="M82.9203 14.3126L81.1107 1.88228L83.6648 1.51086L85.1634 11.8055L90.597 11.0153L90.9079 13.1509L82.9203 14.3126Z" fill="url(#paint33_linear_92_167)"/>
<path d="M95.5978 12.7911L95.8015 0.231445L98.3821 0.273366L98.2134 10.675L103.703 10.7641L103.668 12.9219L95.5978 12.7911Z" fill="url(#paint34_linear_92_167)"/>
<path d="M120.764 15.6648C119.678 15.3947 118.768 14.9048 118.032 14.1948C117.296 13.4847 116.797 12.602 116.535 11.5465C116.274 10.4911 116.306 9.30625 116.634 7.99174C116.962 6.67188 117.491 5.60618 118.22 4.79419C118.95 3.98236 119.807 3.43541 120.793 3.15349C121.779 2.87158 122.809 2.86418 123.884 3.1316C124.582 3.30525 125.209 3.56525 125.763 3.91145C126.317 4.2578 126.779 4.67664 127.149 5.16843C127.519 5.66008 127.786 6.21286 127.949 6.82677C128.112 7.44053 128.154 8.10266 128.076 8.81303L125.547 8.18399C125.571 7.83101 125.537 7.50121 125.445 7.19457C125.354 6.88808 125.213 6.61279 125.025 6.36902C124.836 6.12526 124.604 5.91835 124.328 5.74816C124.051 5.57814 123.736 5.44892 123.381 5.36084C122.737 5.20057 122.134 5.22154 121.571 5.42323C121.008 5.62493 120.52 5.99461 120.108 6.53195C119.696 7.06959 119.384 7.76657 119.171 8.62267C118.955 9.48998 118.904 10.2579 119.019 10.9263C119.134 11.5947 119.392 12.1441 119.795 12.5744C120.198 13.0046 120.721 13.2999 121.365 13.46C121.714 13.5468 122.051 13.5785 122.376 13.5548C122.7 13.5314 123.004 13.4578 123.287 13.3341C123.57 13.2104 123.824 13.0347 124.048 12.8067C124.273 12.5788 124.46 12.304 124.61 11.9821L127.139 12.6109C126.915 13.1864 126.6 13.7017 126.194 14.1568C125.788 14.6119 125.306 14.986 124.75 15.2789C124.193 15.572 123.579 15.7567 122.908 15.8331C122.237 15.9095 121.523 15.8534 120.764 15.6648Z" fill="url(#paint35_linear_92_167)"/>
<path d="M130.548 18.4557L135.575 6.94299L143.414 10.3621L142.55 12.3402L137.077 9.95285L135.876 12.7035L140.931 14.9088L140.085 16.8481L135.029 14.643L133.778 17.5095L139.258 19.9002L138.395 21.8783L130.548 18.4557Z" fill="url(#paint36_linear_92_167)"/>
<path d="M142.746 24.1902L149.534 13.6185L153.686 16.282C154.486 16.795 155.079 17.3755 155.464 18.0234C155.85 18.6715 156.028 19.3498 155.997 20.0581C155.967 20.7664 155.727 21.4706 155.277 22.1707C154.831 22.8659 154.291 23.3681 153.659 23.6768C153.026 23.9857 152.335 24.0897 151.584 23.989C150.834 23.8883 150.052 23.5769 149.238 23.0549L146.448 21.2656L147.573 19.513L150.1 21.134C150.526 21.4071 150.921 21.5721 151.286 21.6288C151.65 21.6857 151.982 21.6397 152.281 21.4911C152.58 21.3423 152.841 21.0954 153.062 20.7502C153.29 20.3953 153.41 20.0499 153.422 19.7138C153.434 19.3775 153.34 19.0534 153.14 18.7412C152.939 18.429 152.624 18.1347 152.193 17.8585L150.553 16.8068L144.919 25.5835L142.746 24.1902ZM148.66 27.9829L149.202 21.5495L151.545 23.052L151.052 29.5173L148.66 27.9829Z" fill="url(#paint37_linear_92_167)"/>
<path d="M161.061 24.1259L162.505 22.5216L170.129 29.3786L168.685 30.9829L165.839 28.4227L158.877 36.156L156.958 34.4305L163.92 26.6972L161.061 24.1259Z" fill="url(#paint38_linear_92_167)"/>
<path d="M176.078 36.0329L166.558 44.2333L164.873 42.2792L174.393 34.0787L176.078 36.0329Z" fill="url(#paint39_linear_92_167)"/>
<path d="M169.892 48.3371L180.325 41.3342L184.994 48.2838L183.202 49.4871L179.971 44.6789L177.135 46.5825L180.074 50.9567L178.324 52.1315L175.385 47.7575L171.331 50.4787L169.892 48.3371Z" fill="url(#paint40_linear_92_167)"/>
<path d="M189.226 56.1594L178.026 61.8581L176.855 59.5591L188.055 53.8605L189.226 56.1594Z" fill="url(#paint41_linear_92_167)"/>
<path d="M180.289 66.6257L192.104 62.345L195.018 70.3816L192.988 71.1171L190.953 65.5057L188.13 66.5285L190.01 71.712L188.02 72.4331L186.14 67.2497L183.198 68.3156L185.236 73.9349L183.206 74.6704L180.289 66.6257Z" fill="url(#paint42_linear_92_167)"/>
<path d="M197.375 79.6558L185.015 81.9301L184.548 79.3929L196.908 77.1188L197.375 79.6558ZM185.35 83.7458L184.76 80.5454L186.934 80.1455L187.5 83.2216C187.648 84.0229 187.915 84.6667 188.302 85.1527C188.688 85.6388 189.204 85.9625 189.849 86.124C190.493 86.2854 191.271 86.2822 192.184 86.1142C193.091 85.9473 193.815 85.674 194.357 85.2943C194.899 84.9146 195.264 84.4302 195.453 83.8412C195.642 83.2521 195.663 82.5596 195.516 81.7637L194.936 78.6131L197.109 78.2131L197.717 81.513C197.946 82.7567 197.895 83.8703 197.565 84.8541C197.234 85.8378 196.652 86.6564 195.817 87.3101C194.983 87.9637 193.927 88.4079 192.65 88.643C191.367 88.8791 190.219 88.8403 189.206 88.5266C188.193 88.2128 187.355 87.6512 186.692 86.8419C186.028 86.0324 185.581 85.0005 185.35 83.7458Z" fill="url(#paint43_linear_92_167)"/>
<path d="M12.8923 155.637L25.6016 151.749L27.5755 154.463L20.0043 165.415L18.318 163.097L22.0496 157.905C22.5441 157.246 23.0873 156.548 23.6794 155.808C24.2713 155.069 24.9281 154.263 25.6496 153.392L25.9968 153.869C24.9478 154.291 23.9822 154.676 23.0998 155.026C22.2172 155.375 21.3928 155.682 20.6263 155.947L14.5587 157.928L12.8923 155.637ZM16.8107 156.135L18.4549 154.941L22.3828 160.341L20.7386 161.536L16.8107 156.135Z" fill="url(#paint44_linear_92_167)"/>
<path d="M33.5089 179.045C32.7114 178.378 32.1378 177.648 31.7885 176.857C31.439 176.066 31.3206 175.269 31.4331 174.465C31.5455 173.661 31.8941 172.91 32.479 172.212L37.7209 165.956L39.6866 167.601L34.5801 173.696C34.2661 174.071 34.0701 174.473 33.9925 174.903C33.9147 175.333 33.9572 175.757 34.1201 176.175C34.2828 176.594 34.5647 176.971 34.9657 177.306C35.3708 177.646 35.7938 177.859 36.2346 177.945C36.6752 178.032 37.0994 177.998 37.507 177.845C37.9145 177.691 38.2753 177.427 38.5894 177.052L43.6959 170.957L45.6681 172.608L40.4263 178.864C39.8414 179.562 39.1629 180.037 38.391 180.289C37.6189 180.541 36.8116 180.563 35.9691 180.357C35.1264 180.15 34.3064 179.713 33.5089 179.045Z" fill="url(#paint45_linear_92_167)"/>
<path d="M54.4643 180.861L55.4107 178.921L64.6294 183.414L63.683 185.354L60.2412 183.676L55.6796 193.027L53.3597 191.897L57.9214 182.546L54.4643 180.861Z" fill="url(#paint46_linear_92_167)"/>
<path d="M73.0265 199.496L75.6103 187.203L78.1362 187.733L77.0939 192.692L82.4261 193.811L83.4684 188.853L85.9942 189.383L83.4103 201.676L80.8845 201.146L81.9822 195.924L76.65 194.804L75.5523 200.026L73.0265 199.496Z" fill="url(#paint47_linear_92_167)"/>
<path d="M98.4837 202.854L98.0896 190.299L106.638 190.031L106.706 192.188L100.737 192.375L100.831 195.375L106.345 195.202L106.411 197.317L100.897 197.49L100.996 200.616L106.973 200.429L107.04 202.586L98.4837 202.854Z" fill="url(#paint48_linear_92_167)"/>
<path d="M121.801 200.459L118.417 188.362L121.154 187.597L126.713 192.661C126.972 192.898 127.249 193.166 127.543 193.466C127.837 193.766 128.149 194.104 128.479 194.478C128.808 194.853 129.147 195.266 129.495 195.717L129.268 195.938C129.114 195.514 128.954 195.056 128.787 194.563C128.62 194.07 128.464 193.595 128.319 193.14C128.174 192.685 128.058 192.302 127.972 191.994L126.336 186.148L128.862 185.442L132.247 197.539L129.502 198.307L124.461 193.719C124.122 193.406 123.789 193.086 123.461 192.76C123.133 192.434 122.783 192.067 122.408 191.658C122.034 191.249 121.599 190.773 121.102 190.229L121.425 190.068C121.623 190.649 121.811 191.202 121.99 191.727C122.169 192.252 122.326 192.726 122.462 193.149C122.598 193.572 122.703 193.916 122.777 194.181L124.335 199.751L121.801 200.459Z" fill="url(#paint49_linear_92_167)"/>
<path d="M140.629 182.798L139.555 180.925L148.454 175.828L149.527 177.701L146.205 179.604L151.379 188.63L149.14 189.913L143.966 180.887L140.629 182.798Z" fill="url(#paint50_linear_92_167)"/>
<path d="M159.671 167.02L167.968 176.455L166.03 178.158L157.732 168.724L159.671 167.02Z" fill="url(#paint51_linear_92_167)"/>
<path d="M181.745 161.584C181.075 162.479 180.27 163.128 179.329 163.53C178.389 163.933 177.381 164.05 176.307 163.881C175.232 163.713 174.152 163.223 173.067 162.411C171.978 161.596 171.2 160.696 170.734 159.709C170.269 158.722 170.097 157.72 170.22 156.702C170.342 155.685 170.735 154.733 171.399 153.846C171.83 153.27 172.313 152.794 172.847 152.418C173.382 152.042 173.947 151.779 174.544 151.629C175.141 151.479 175.754 151.448 176.384 151.536C177.013 151.624 177.64 151.842 178.265 152.189L176.703 154.275C176.387 154.116 176.07 154.019 175.751 153.985C175.433 153.95 175.125 153.973 174.827 154.051C174.529 154.131 174.248 154.264 173.984 154.453C173.72 154.641 173.479 154.882 173.26 155.174C172.862 155.705 172.647 156.269 172.615 156.866C172.582 157.463 172.734 158.056 173.07 158.644C173.405 159.232 173.927 159.79 174.633 160.319C175.349 160.854 176.038 161.199 176.699 161.353C177.359 161.506 177.966 161.481 178.519 161.277C179.073 161.073 179.548 160.706 179.945 160.174C180.161 159.887 180.321 159.588 180.425 159.28C180.529 158.972 180.579 158.664 180.575 158.355C180.571 158.047 180.507 157.745 180.384 157.449C180.261 157.154 180.081 156.875 179.842 156.612L181.403 154.526C181.847 154.956 182.199 155.447 182.462 155.997C182.724 156.547 182.882 157.136 182.936 157.762C182.99 158.389 182.922 159.026 182.732 159.674C182.542 160.321 182.213 160.958 181.745 161.584Z" fill="url(#paint52_linear_92_167)"/>
<defs>
<linearGradient id="paint0_linear_92_167" x1="37.6017" y1="124.033" x2="168.403" y2="124.033" gradientUnits="userSpaceOnUse">
<stop stop-color="#FFC903"/>
<stop offset="1" stop-color="#FBF75C"/>
</linearGradient>
<linearGradient id="paint1_linear_92_167" x1="102.792" y1="170.344" x2="102.792" y2="78.2855" gradientUnits="userSpaceOnUse">
<stop stop-color="#FFC800"/>
<stop offset="1" stop-color="#FBF95F"/>
</linearGradient>
<linearGradient id="paint2_linear_92_167" x1="70.11" y1="152.574" x2="122.395" y2="152.574" gradientUnits="userSpaceOnUse">
<stop stop-color="#FFC800"/>
<stop offset="1" stop-color="#FBF95F"/>
</linearGradient>
<linearGradient id="paint3_linear_92_167" x1="111.596" y1="151.18" x2="111.596" y2="147.867" gradientUnits="userSpaceOnUse">
<stop stop-color="#BD7802"/>
<stop offset="1" stop-color="#C1A525"/>
</linearGradient>
<radialGradient id="paint4_radial_92_167" cx="0" cy="0" r="1" gradientUnits="userSpaceOnUse" gradientTransform="translate(111.916 148.981) scale(0.998644 0.998168)">
<stop stop-color="#001545"/>
<stop offset="1" stop-color="#000B25"/>
</radialGradient>
<linearGradient id="paint5_linear_92_167" x1="56.9186" y1="169.329" x2="56.9186" y2="93.4385" gradientUnits="userSpaceOnUse">
<stop stop-color="#FFC800"/>
<stop offset="1" stop-color="#FBF95F"/>
</linearGradient>
<linearGradient id="paint6_linear_92_167" x1="96.7488" y1="140.943" x2="96.7488" y2="25.657" gradientUnits="userSpaceOnUse">
<stop stop-color="#FFC800"/>
<stop offset="1" stop-color="#FBF95F"/>
</linearGradient>
<linearGradient id="paint7_linear_92_167" x1="136.015" y1="170.399" x2="136.015" y2="76.2361" gradientUnits="userSpaceOnUse">
<stop stop-color="#FFC800"/>
<stop offset="1" stop-color="#FBF95F"/>
</linearGradient>
<linearGradient id="paint8_linear_92_167" x1="34.0032" y1="63.9606" x2="93.111" y2="63.9606" gradientUnits="userSpaceOnUse">
<stop stop-color="#FFC800"/>
<stop offset="1" stop-color="#FBFBDF"/>
</linearGradient>
<linearGradient id="paint9_linear_92_167" x1="95.1138" y1="39.0447" x2="116.796" y2="39.0447" gradientUnits="userSpaceOnUse">
<stop stop-color="#FFC800"/>
<stop offset="1" stop-color="#FBF95F"/>
</linearGradient>
<linearGradient id="paint10_linear_92_167" x1="34.7897" y1="150.035" x2="86.8697" y2="150.035" gradientUnits="userSpaceOnUse">
<stop stop-color="#FFC800"/>
<stop offset="1" stop-color="#FBF95F"/>
</linearGradient>
<linearGradient id="paint11_linear_92_167" x1="100.245" y1="123.317" x2="171.785" y2="123.317" gradientUnits="userSpaceOnUse">
<stop stop-color="#FFC800"/>
<stop offset="1" stop-color="#FBF95F"/>
</linearGradient>
<linearGradient id="paint12_linear_92_167" x1="87.0805" y1="89.1427" x2="87.0805" y2="67.0021" gradientUnits="userSpaceOnUse">
<stop stop-color="#BD7802"/>
<stop offset="1" stop-color="#C1A525"/>
</linearGradient>
<linearGradient id="paint13_linear_92_167" x1="120.968" y1="158.417" x2="120.968" y2="144.3" gradientUnits="userSpaceOnUse">
<stop stop-color="#BD7802"/>
<stop offset="1" stop-color="#C1A525"/>
</linearGradient>
<radialGradient id="paint14_radial_92_167" cx="0" cy="0" r="1" gradientUnits="userSpaceOnUse" gradientTransform="translate(121.877 148.444) scale(6.38442 6.38137)">
<stop stop-color="#001545"/>
<stop offset="1" stop-color="#000B25"/>
</radialGradient>
<linearGradient id="paint15_linear_92_167" x1="88.4212" y1="134.091" x2="88.4212" y2="114.365" gradientUnits="userSpaceOnUse">
<stop stop-color="#BD7802"/>
<stop offset="1" stop-color="#C1A525"/>
</linearGradient>
<radialGradient id="paint16_radial_92_167" cx="0" cy="0" r="1" gradientUnits="userSpaceOnUse" gradientTransform="translate(80.5714 125.796) scale(5.11537 5.11293)">
<stop stop-color="#001545"/>
<stop offset="1" stop-color="#000B25"/>
</radialGradient>
<linearGradient id="paint17_linear_92_167" x1="158.608" y1="125.432" x2="158.608" y2="104.045" gradientUnits="userSpaceOnUse">
<stop stop-color="#BD7802"/>
<stop offset="1" stop-color="#C1A525"/>
</linearGradient>
<linearGradient id="paint18_linear_92_167" x1="157.524" y1="74.4859" x2="157.524" y2="56.0569" gradientUnits="userSpaceOnUse">
<stop stop-color="#BD7802"/>
<stop offset="1" stop-color="#C1A525"/>
</linearGradient>
<linearGradient id="paint19_linear_92_167" x1="68.2752" y1="160.168" x2="68.2752" y2="145.015" gradientUnits="userSpaceOnUse">
<stop stop-color="#BD7802"/>
<stop offset="1" stop-color="#C1A525"/>
</linearGradient>
<radialGradient id="paint20_radial_92_167" cx="0" cy="0" r="1" gradientUnits="userSpaceOnUse" gradientTransform="translate(93.2282 78.0725) scale(8.04995 8.04609)">
<stop stop-color="#001545"/>
<stop offset="1" stop-color="#000B25"/>
</radialGradient>
<linearGradient id="paint21_linear_92_167" x1="47.871" y1="93.3823" x2="47.871" y2="69.248" gradientUnits="userSpaceOnUse">
<stop stop-color="#BD7802"/>
<stop offset="1" stop-color="#C1A525"/>
</linearGradient>
<linearGradient id="paint22_linear_92_167" x1="90.8526" y1="46.9818" x2="90.8526" y2="33.8392" gradientUnits="userSpaceOnUse">
<stop stop-color="#BD7802"/>
<stop offset="1" stop-color="#C1A525"/>
</linearGradient>
<linearGradient id="paint23_linear_92_167" x1="99.5209" y1="44.3013" x2="99.5209" y2="36.5198" gradientUnits="userSpaceOnUse">
<stop stop-color="#BD7802"/>
<stop offset="1" stop-color="#C1A525"/>
</linearGradient>
<linearGradient id="paint24_linear_92_167" x1="132.904" y1="91.4542" x2="132.904" y2="70.3971" gradientUnits="userSpaceOnUse">
<stop stop-color="#BD7802"/>
<stop offset="1" stop-color="#C1A525"/>
</linearGradient>
<linearGradient id="paint25_linear_92_167" x1="0.142456" y1="83.1562" x2="12.9699" y2="83.1562" gradientUnits="userSpaceOnUse">
<stop stop-color="#BD7802"/>
<stop offset="1" stop-color="#C1A525"/>
</linearGradient>
<linearGradient id="paint26_linear_92_167" x1="3.66187" y1="71.607" x2="16.4156" y2="71.607" gradientUnits="userSpaceOnUse">
<stop stop-color="#BD7802"/>
<stop offset="1" stop-color="#C1A525"/>
</linearGradient>
<linearGradient id="paint27_linear_92_167" x1="8.37708" y1="59.6893" x2="21.2681" y2="59.6893" gradientUnits="userSpaceOnUse">
<stop stop-color="#BD7802"/>
<stop offset="1" stop-color="#C1A525"/>
</linearGradient>
<linearGradient id="paint28_linear_92_167" x1="15.0964" y1="45.4104" x2="31.6321" y2="45.4104" gradientUnits="userSpaceOnUse">
<stop stop-color="#BD7802"/>
<stop offset="1" stop-color="#C1A525"/>
</linearGradient>
<linearGradient id="paint29_linear_92_167" x1="25.7156" y1="35.9974" x2="40.3187" y2="35.9974" gradientUnits="userSpaceOnUse">
<stop stop-color="#BD7802"/>
<stop offset="1" stop-color="#C1A525"/>
</linearGradient>
<linearGradient id="paint30_linear_92_167" x1="36.365" y1="24.9733" x2="50.7329" y2="24.9733" gradientUnits="userSpaceOnUse">
<stop stop-color="#BD7802"/>
<stop offset="1" stop-color="#C1A525"/>
</linearGradient>
<linearGradient id="paint31_linear_92_167" x1="49.0953" y1="17.7503" x2="62.2535" y2="17.7503" gradientUnits="userSpaceOnUse">
<stop stop-color="#BD7802"/>
<stop offset="1" stop-color="#C1A525"/>
</linearGradient>
<linearGradient id="paint32_linear_92_167" x1="67.0498" y1="11.6358" x2="78.5758" y2="11.6358" gradientUnits="userSpaceOnUse">
<stop stop-color="#BD7802"/>
<stop offset="1" stop-color="#C1A525"/>
</linearGradient>
<linearGradient id="paint33_linear_92_167" x1="81.1107" y1="7.91173" x2="90.9079" y2="7.91173" gradientUnits="userSpaceOnUse">
<stop stop-color="#BD7802"/>
<stop offset="1" stop-color="#C1A525"/>
</linearGradient>
<linearGradient id="paint34_linear_92_167" x1="95.5978" y1="6.57667" x2="103.703" y2="6.57667" gradientUnits="userSpaceOnUse">
<stop stop-color="#BD7802"/>
<stop offset="1" stop-color="#C1A525"/>
</linearGradient>
<linearGradient id="paint35_linear_92_167" x1="116.361" y1="9.40128" x2="128.114" y2="9.40128" gradientUnits="userSpaceOnUse">
<stop stop-color="#BD7802"/>
<stop offset="1" stop-color="#C1A525"/>
</linearGradient>
<linearGradient id="paint36_linear_92_167" x1="130.548" y1="14.4106" x2="143.414" y2="14.4106" gradientUnits="userSpaceOnUse">
<stop stop-color="#BD7802"/>
<stop offset="1" stop-color="#C1A525"/>
</linearGradient>
<linearGradient id="paint37_linear_92_167" x1="142.746" y1="21.5679" x2="156.001" y2="21.5679" gradientUnits="userSpaceOnUse">
<stop stop-color="#BD7802"/>
<stop offset="1" stop-color="#C1A525"/>
</linearGradient>
<linearGradient id="paint38_linear_92_167" x1="156.958" y1="29.3388" x2="170.129" y2="29.3388" gradientUnits="userSpaceOnUse">
<stop stop-color="#BD7802"/>
<stop offset="1" stop-color="#C1A525"/>
</linearGradient>
<linearGradient id="paint39_linear_92_167" x1="164.873" y1="39.156" x2="176.078" y2="39.156" gradientUnits="userSpaceOnUse">
<stop stop-color="#BD7802"/>
<stop offset="1" stop-color="#C1A525"/>
</linearGradient>
<linearGradient id="paint40_linear_92_167" x1="169.892" y1="46.7329" x2="184.994" y2="46.7329" gradientUnits="userSpaceOnUse">
<stop stop-color="#BD7802"/>
<stop offset="1" stop-color="#C1A525"/>
</linearGradient>
<linearGradient id="paint41_linear_92_167" x1="176.855" y1="57.8593" x2="189.226" y2="57.8593" gradientUnits="userSpaceOnUse">
<stop stop-color="#BD7802"/>
<stop offset="1" stop-color="#C1A525"/>
</linearGradient>
<linearGradient id="paint42_linear_92_167" x1="180.289" y1="68.5077" x2="195.018" y2="68.5077" gradientUnits="userSpaceOnUse">
<stop stop-color="#BD7802"/>
<stop offset="1" stop-color="#C1A525"/>
</linearGradient>
<linearGradient id="paint43_linear_92_167" x1="184.548" y1="82.9569" x2="197.858" y2="82.9569" gradientUnits="userSpaceOnUse">
<stop stop-color="#BD7802"/>
<stop offset="1" stop-color="#C1A525"/>
</linearGradient>
<linearGradient id="paint44_linear_92_167" x1="12.8923" y1="158.582" x2="27.5755" y2="158.582" gradientUnits="userSpaceOnUse">
<stop stop-color="#BD7802"/>
<stop offset="1" stop-color="#C1A525"/>
</linearGradient>
<linearGradient id="paint45_linear_92_167" x1="31.392" y1="173.226" x2="45.6681" y2="173.226" gradientUnits="userSpaceOnUse">
<stop stop-color="#BD7802"/>
<stop offset="1" stop-color="#C1A525"/>
</linearGradient>
<linearGradient id="paint46_linear_92_167" x1="53.3597" y1="185.974" x2="64.6294" y2="185.974" gradientUnits="userSpaceOnUse">
<stop stop-color="#BD7802"/>
<stop offset="1" stop-color="#C1A525"/>
</linearGradient>
<linearGradient id="paint47_linear_92_167" x1="73.0265" y1="194.44" x2="85.9942" y2="194.44" gradientUnits="userSpaceOnUse">
<stop stop-color="#BD7802"/>
<stop offset="1" stop-color="#C1A525"/>
</linearGradient>
<linearGradient id="paint48_linear_92_167" x1="98.0896" y1="196.443" x2="107.04" y2="196.443" gradientUnits="userSpaceOnUse">
<stop stop-color="#BD7802"/>
<stop offset="1" stop-color="#C1A525"/>
</linearGradient>
<linearGradient id="paint49_linear_92_167" x1="118.417" y1="192.951" x2="132.247" y2="192.951" gradientUnits="userSpaceOnUse">
<stop stop-color="#BD7802"/>
<stop offset="1" stop-color="#C1A525"/>
</linearGradient>
<linearGradient id="paint50_linear_92_167" x1="139.555" y1="182.871" x2="151.379" y2="182.871" gradientUnits="userSpaceOnUse">
<stop stop-color="#BD7802"/>
<stop offset="1" stop-color="#C1A525"/>
</linearGradient>
<linearGradient id="paint51_linear_92_167" x1="157.732" y1="172.589" x2="167.968" y2="172.589" gradientUnits="userSpaceOnUse">
<stop stop-color="#BD7802"/>
<stop offset="1" stop-color="#C1A525"/>
</linearGradient>
<linearGradient id="paint52_linear_92_167" x1="170.182" y1="157.721" x2="182.954" y2="157.721" gradientUnits="userSpaceOnUse">
<stop stop-color="#BD7802"/>
<stop offset="1" stop-color="#C1A525"/>
</linearGradient>
</defs>
</svg>
