<svg width="200" height="46" viewBox="0 0 200 46" fill="none" xmlns="http://www.w3.org/2000/svg">
<path d="M4.48266 24.899L3.26782 23.3546L19.1899 36.0134C19.1899 36.0134 20.4112 36.9536 21.6519 36.0134L43.1311 14.5923L42.0552 16.211L43.4607 14.8152L20.6503 45.9647L3.26782 23.9233L4.48266 24.899Z" fill="url(#paint0_linear_61_1160)"/>
<path d="M42.065 16.2144L29.323 33.5899L26.3783 37.6052V37.6057L26.3753 37.6091L26.3749 37.6096L25.8789 38.2864L25.6312 38.6242L25.6307 38.6247L21.3108 44.5157C21.2696 44.5142 21.229 44.5127 21.1884 44.5107C21.1398 44.5087 21.0918 44.5063 21.0437 44.5038C20.9679 44.4998 20.8921 44.4953 20.8168 44.4909C20.7901 44.4889 20.7633 44.4874 20.7366 44.4854C20.6781 44.4815 20.6202 44.4775 20.5622 44.4731C20.5236 44.4706 20.4844 44.4676 20.4458 44.4641C20.3601 44.4577 20.2744 44.4503 20.1892 44.4423C20.1158 44.4359 20.0425 44.429 19.9697 44.4215C19.9449 44.4191 19.9211 44.4166 19.8969 44.4141L13.2569 35.9931L4.53418 24.9311L18.4186 35.9995L19.1899 36.6144C19.1899 36.6144 20.3918 37.4739 21.613 36.6144L22.7569 35.4734L42.065 16.2144Z" fill="url(#paint1_linear_61_1160)"/>
<path d="M29.323 33.5903L26.3783 37.6056V37.6061L26.3753 37.6096L26.3748 37.6101L25.8789 38.2868L25.6312 38.6247L25.6307 38.6252L21.3107 44.5161C21.2696 44.5146 21.229 44.5132 21.1883 44.5112C21.1398 44.5092 21.0917 44.5067 21.0437 44.5042C20.9679 44.5003 20.8921 44.4958 20.8168 44.4913C20.79 44.4894 20.7633 44.4879 20.7365 44.4859C20.6781 44.4819 20.6201 44.478 20.5622 44.4735C20.5235 44.471 20.4844 44.4681 20.4457 44.4646C20.36 44.4581 20.2743 44.4507 20.1891 44.4428C20.1158 44.4364 20.0425 44.4294 19.9697 44.422C19.9449 44.4195 19.9211 44.417 19.8968 44.4146L13.2568 35.9936C14.97 36.1308 16.6999 36.1189 18.4185 36L19.1899 36.6148C19.1899 36.6148 20.3917 37.4744 21.6129 36.6148L22.7568 35.4739C25.0104 35.0756 27.2269 34.4687 29.323 33.5903Z" fill="url(#paint2_linear_61_1160)"/>
<path d="M15.5583 40.5849L18.407 44.2039C18.3004 44.1856 18.1944 44.1663 18.0889 44.146C18.028 44.1346 17.967 44.1227 17.9061 44.1108C17.9011 44.1098 17.8957 44.1088 17.8897 44.1073C17.8298 44.0954 17.7694 44.083 17.7089 44.0711C17.5717 44.0424 17.4345 44.0122 17.2972 43.9815C17.2427 43.9686 17.1882 43.9562 17.1338 43.9433C16.9445 43.8992 16.7557 43.8522 16.5685 43.8021C16.5056 43.7858 16.4431 43.7689 16.3812 43.7521C16.2547 43.7176 16.1289 43.6815 16.0033 43.6448C15.9624 43.6329 15.9216 43.6209 15.8808 43.6087C15.771 43.5759 15.6613 43.5425 15.5522 43.508C15.5002 43.4917 15.4485 43.4747 15.3966 43.4579C15.3225 43.4339 15.2484 43.4096 15.1746 43.3849C15.1138 43.3645 15.053 43.344 14.9924 43.3231C14.9292 43.3013 14.8662 43.2789 14.8033 43.2565C14.6942 43.2178 14.5855 43.1782 14.4772 43.1378C14.4422 43.1247 14.4071 43.1116 14.372 43.0983C5.97245 39.9179 0 31.7993 0 22.285C0 21.8109 0.0148491 21.3397 0.0440751 20.873L11.8235 35.8389L13.1715 37.552L15.5583 40.5849Z" fill="url(#paint3_linear_61_1160)"/>
<path d="M41.225 15.0466C35.5892 20.6725 21.4552 34.7808 21.0073 35.2286C20.4475 35.7884 19.8005 35.2286 19.8005 35.2286L2.32939 21.2897L2.16192 21.156L0.167887 19.5652L0.164429 19.5692C1.50355 8.56167 10.8811 0.0351562 22.2498 0.0351562C31.4387 0.0351562 39.3266 5.60555 42.7207 13.5539C42.4953 13.7783 42.2268 14.0468 41.9196 14.3535C41.7061 14.5665 41.4737 14.7984 41.225 15.0466Z" fill="url(#paint4_linear_61_1160)"/>
<path d="M44.4997 22.2849C44.4997 34.4839 34.6822 44.3901 22.5169 44.5328L25.8376 40.0008L26.6997 38.8242L28.286 36.6592L31.1499 32.7504L43.3702 16.0725L43.4475 15.6068L43.4703 15.5884C43.4708 15.5869 43.4708 15.586 43.4713 15.5845C43.4718 15.5855 43.4718 15.5865 43.4723 15.5874L43.4732 15.5865C43.8279 16.7091 44.095 17.8703 44.2674 19.0623C44.3085 19.3417 44.3442 19.6231 44.3734 19.9059C44.3739 19.9074 44.3739 19.9089 44.3739 19.9104C44.3813 19.9807 44.3888 20.0516 44.3952 20.1219C44.4021 20.1933 44.4091 20.2646 44.415 20.3359C44.4214 20.4073 44.4274 20.4786 44.4328 20.55C44.4383 20.6218 44.4433 20.6931 44.4482 20.765C44.4522 20.8234 44.4561 20.8824 44.4596 20.9408C44.4616 20.9726 44.4636 21.0043 44.465 21.0365C44.468 21.089 44.4705 21.1415 44.4735 21.194C44.4774 21.2827 44.4814 21.3709 44.4844 21.4595C44.4873 21.5368 44.4898 21.6146 44.4918 21.6924C44.4923 21.7117 44.4928 21.7315 44.4933 21.7513C44.4953 21.8222 44.4963 21.8935 44.4973 21.9649C44.4978 21.9792 44.4978 21.9941 44.4978 22.009C44.4993 22.1006 44.4997 22.1928 44.4997 22.2849Z" fill="url(#paint5_linear_61_1160)"/>
<path d="M20.3246 5.66911C19.2902 5.75235 18.2731 5.91533 17.2803 6.15313C10.0131 7.89152 4.05582 13.6224 2.32933 21.2899L2.16187 21.1561C2.70038 11.4213 10.1613 3.53785 19.7039 2.33203C19.7247 2.40683 19.7445 2.48165 19.7638 2.55645C20.0348 3.58343 20.2196 4.6243 20.3246 5.66911Z" fill="url(#paint6_linear_61_1160)"/>
<path d="M22.2499 2.16553C21.8094 2.16553 21.3736 2.18467 20.9402 2.21255C21.4264 3.31558 21.8127 4.45179 22.0911 5.60946C23.1817 5.61819 24.2854 5.71129 25.3952 5.90405C25.7754 5.97004 26.1496 6.04987 26.5208 6.13609L27.6027 2.89112C25.8977 2.42152 24.1041 2.16553 22.2499 2.16553Z" fill="url(#paint7_linear_61_1160)"/>
<path d="M15.5583 40.5849L18.4069 44.2039C18.3004 44.1856 18.1949 44.1663 18.0889 44.146C18.0279 44.1346 17.967 44.1227 17.9061 44.1108C17.9011 44.1098 17.8957 44.1088 17.8897 44.1073C17.8298 44.0954 17.7693 44.083 17.7089 44.0711C17.5717 44.0424 17.4344 44.0122 17.2972 43.9815C17.2427 43.9686 17.1882 43.9562 17.1337 43.9433C16.9445 43.8987 16.7557 43.8517 16.5685 43.8021C16.5055 43.7858 16.4431 43.769 16.3812 43.7521C10.2743 42.0846 5.21563 37.879 2.40369 32.3408C4.10293 33.5248 6.01126 34.429 7.99588 35.0259C9.24878 35.4029 10.5289 35.6675 11.8234 35.8389L13.1714 37.552L15.5583 40.5849Z" fill="url(#paint8_linear_61_1160)"/>
<path d="M44.4997 22.2849C44.4997 34.4839 34.6822 44.3901 22.5169 44.5328L25.8376 40.0008L26.6997 38.8242L28.286 36.6592L31.1499 32.7504C31.7949 32.418 32.4251 32.0554 33.0374 31.6615C38.5746 28.1 42.208 22.0753 43.4703 15.5884C43.4708 15.5869 43.4708 15.586 43.4713 15.5845C43.4718 15.5855 43.4718 15.5865 43.4723 15.5874C43.826 16.71 44.094 17.8708 44.2674 19.0623C44.308 19.3417 44.3432 19.6231 44.3734 19.9059C44.3739 19.9074 44.3739 19.9089 44.3739 19.9104C44.3813 19.9807 44.3888 20.0516 44.3952 20.1219C44.4022 20.1933 44.4091 20.2646 44.415 20.3359C44.4214 20.4073 44.4274 20.4786 44.4328 20.55C44.4383 20.6218 44.4433 20.6931 44.4482 20.765C44.4522 20.8234 44.4561 20.8824 44.4596 20.9408C44.4616 20.9726 44.4636 21.0043 44.465 21.0365C44.468 21.089 44.4705 21.1415 44.4735 21.194C44.4774 21.2827 44.4814 21.3709 44.4844 21.4595C44.4874 21.5368 44.4898 21.6146 44.4918 21.6924C44.4923 21.7117 44.4928 21.7315 44.4933 21.7513C44.4953 21.8222 44.4963 21.8935 44.4973 21.9649C44.4978 21.9792 44.4978 21.9941 44.4978 22.009C44.4993 22.1006 44.4997 22.1928 44.4997 22.2849Z" fill="url(#paint9_linear_61_1160)"/>
<path d="M18.4718 19.5523C20.5584 19.5523 22.2499 18.0286 22.2499 16.1489C22.2499 14.2693 20.5584 12.7456 18.4718 12.7456C16.3853 12.7456 14.6938 14.2693 14.6938 16.1489C14.6938 18.0286 16.3853 19.5523 18.4718 19.5523Z" fill="url(#paint10_linear_61_1160)"/>
<path d="M29.2787 40.6787C27.8187 41.07 26.4207 40.7653 25.8376 40.0009L26.6996 38.8243L28.2859 36.6594C28.3463 36.644 28.4063 36.6302 28.4662 36.6173C28.5316 36.6034 28.5965 36.5905 28.6614 36.5796C28.6793 36.5767 28.6971 36.5737 28.7149 36.5707C28.7501 36.5648 28.7848 36.5598 28.819 36.5549C28.866 36.5484 28.9126 36.5425 28.9587 36.5375C28.9989 36.5331 29.039 36.5293 29.0789 36.5259C29.0957 36.5245 29.1125 36.5233 29.1292 36.5221C29.1518 36.5204 29.1743 36.5188 29.1968 36.5174C29.2173 36.5162 29.2377 36.5151 29.2581 36.5142C29.2756 36.5134 29.293 36.5127 29.3104 36.5121C29.3338 36.5113 29.3572 36.5105 29.3805 36.51C29.3893 36.5098 29.3981 36.5098 29.4069 36.5097C30.6465 36.4923 31.6601 36.9934 31.8861 37.8365C32.1823 38.9408 31.0146 40.213 29.2787 40.6787Z" fill="url(#paint11_linear_61_1160)"/>
<path d="M31.6285 37.3368C31.1999 38.0076 30.3478 38.6006 29.2788 38.8874C28.3206 39.144 27.3907 39.1004 26.6996 38.824L28.2859 36.659C28.3464 36.6437 28.4063 36.6298 28.4663 36.6169C28.5317 36.6031 28.5966 36.5902 28.6614 36.5793C28.6793 36.5763 28.6971 36.5733 28.7149 36.5704C28.7496 36.5644 28.7843 36.5595 28.819 36.5545C28.8661 36.5481 28.9126 36.5421 28.9587 36.5372C30.1145 36.4094 31.14 36.7195 31.6285 37.3368Z" fill="url(#paint12_radial_61_1160)"/>
<path d="M22.2499 30.3384C22.2499 32.0131 20.7428 33.3707 18.8838 33.3707C17.0247 33.3707 15.5176 32.0131 15.5176 30.3384C15.5176 28.6638 17.0247 27.3062 18.8838 27.3062C20.7428 27.3062 22.2499 28.6638 22.2499 30.3384Z" fill="url(#paint13_linear_61_1160)"/>
<path d="M15.9782 28.813C15.6872 29.2616 15.5176 29.7818 15.5176 30.3388C15.5176 31.3707 16.091 32.2809 16.9652 32.8286C17.2561 32.38 17.4257 31.8598 17.4257 31.3028C17.4257 30.2709 16.8524 29.3607 15.9782 28.813Z" fill="url(#paint14_radial_61_1160)"/>
<path d="M39.615 30.6821C38.7179 30.4522 38.3649 28.8059 38.8264 27.0051C39.288 25.2042 40.3894 23.9307 41.2865 24.1606C42.1835 24.3906 42.5366 26.0368 42.075 27.8377C41.6134 29.6385 40.512 30.912 39.615 30.6821Z" fill="url(#paint15_linear_61_1160)"/>
<path d="M41.9196 14.3534C41.7061 14.5664 41.4737 14.7983 41.225 15.0465C40.7187 14.6615 40.038 13.8114 39.4227 12.7458C38.4934 11.1357 38.0648 9.64303 38.4661 9.41118C38.8669 9.17983 39.9454 10.2975 40.8753 11.9076C41.4103 12.8345 41.7794 13.7227 41.9196 14.3534Z" fill="url(#paint16_linear_61_1160)"/>
<path d="M15.5583 40.5847C15.5544 40.7576 15.5078 40.9112 15.4157 41.038C14.9232 41.7152 13.3052 41.3779 11.8016 40.284C10.2981 39.1906 9.47864 37.7554 9.97111 37.0782C10.4185 36.4629 11.7957 36.6853 13.1714 37.5518L15.5583 40.5847Z" fill="url(#paint17_linear_61_1160)"/>
<path d="M20.3608 19.0932C21.4041 19.0932 22.2498 17.775 22.2498 16.1489C22.2498 14.5228 21.4041 13.2046 20.3608 13.2046C19.3175 13.2046 18.4718 14.5228 18.4718 16.1489C18.4718 17.775 19.3175 19.0932 20.3608 19.0932Z" fill="url(#paint18_radial_61_1160)"/>
<path d="M8.36069 17.6428C7.84033 19.673 6.55115 21.0965 5.48124 20.8223C4.41129 20.548 3.96579 18.68 4.48611 16.6498C5.00647 14.6196 6.29565 13.1961 7.36556 13.4703C8.43551 13.7446 8.88104 15.6126 8.36069 17.6428Z" fill="url(#paint19_linear_61_1160)"/>
<path d="M22.9553 4.21747C23.0721 5.31579 21.6784 6.36443 19.8424 6.55967C18.0063 6.75492 16.4233 6.02284 16.3065 4.92452C16.1897 3.8262 17.5834 2.77756 19.4194 2.5823C21.2554 2.38705 22.8385 3.11913 22.9553 4.21747Z" fill="url(#paint20_linear_61_1160)"/>
<path d="M21.6337 4.92417C21.6673 5.24036 21.8256 5.52468 22.0733 5.76678C22.6712 5.33685 23.0155 4.78414 22.9553 4.21712C22.9216 3.90093 22.7634 3.61661 22.5157 3.37451C21.9178 3.80443 21.5734 4.35715 21.6337 4.92417Z" fill="url(#paint21_linear_61_1160)"/>
<path d="M35.142 16.0379C35.7915 17.7397 35.1587 19.5617 33.7285 20.1076C32.2983 20.6534 30.6124 19.7165 29.9629 18.0147C29.3134 16.313 29.9462 14.4909 31.3764 13.9451C32.8066 13.3992 34.4925 14.3362 35.142 16.0379Z" fill="url(#paint22_linear_61_1160)"/>
<path d="M54.5125 23.5393V5.80127H61.4529C62.794 5.80127 63.941 6.05332 64.8934 6.55719C65.8458 7.06127 66.5738 7.75959 67.0779 8.65246C67.5818 9.54531 67.8338 10.5791 67.8338 11.7536C67.8338 12.9283 67.5779 13.9601 67.066 14.8489C66.5541 15.7378 65.8178 16.4322 64.8577 16.9322C63.8973 17.4321 62.7386 17.6821 61.3815 17.6821H56.822V14.7179H60.8934C61.6077 14.7179 62.2047 14.5929 62.685 14.3429C63.1651 14.0929 63.5243 13.7458 63.7624 13.3012C64.0005 12.8568 64.1195 12.341 64.1195 11.7536C64.1195 11.1584 64.0005 10.6426 63.7624 10.206C63.5243 9.76961 63.1651 9.42832 62.685 9.18218C62.2047 8.93631 61.6035 8.81314 60.8815 8.81314H58.1553V23.5394L54.5125 23.5393Z" fill="#FA9D00"/>
<path d="M73.8696 5.80127V23.5393H70.2267V5.80127H73.8696Z" fill="#FA9D00"/>
<path d="M84.7266 23.7894C83.1472 23.7894 81.7326 23.4283 80.4826 22.7061C79.2326 21.9839 78.2484 20.9441 77.5302 19.5869C76.8118 18.2298 76.4528 16.5949 76.4528 14.6822C76.4528 12.7616 76.8139 11.1208 77.5361 9.75957C78.2583 8.39852 79.2463 7.35685 80.5004 6.63458C81.7543 5.91251 83.1629 5.55127 84.7266 5.55127C85.7425 5.55127 86.6888 5.69411 87.5659 5.97985C88.4427 6.26553 89.2185 6.68219 89.8933 7.2298C90.5677 7.77743 91.1213 8.44409 91.5539 9.22977C91.9865 10.0155 92.2701 10.9084 92.4051 11.9083H88.7265C88.6392 11.4163 88.4805 10.9759 88.2504 10.587C88.0201 10.1982 87.7344 9.86876 87.3932 9.59887C87.0519 9.32913 86.663 9.1247 86.2266 8.98573C85.7901 8.84696 85.3138 8.77743 84.7981 8.77743C83.8614 8.77743 83.0421 9.01156 82.3397 9.47977C81.6373 9.94818 81.0957 10.6208 80.7147 11.4977C80.3338 12.3747 80.1433 13.4363 80.1433 14.6821C80.1433 15.944 80.3356 17.0136 80.7207 17.8905C81.1055 18.7676 81.6472 19.4322 82.3456 19.8845C83.044 20.3369 83.8614 20.5632 84.7981 20.5632C85.3058 20.5632 85.7782 20.4917 86.2147 20.3488C86.6511 20.206 87.042 20.0017 87.3872 19.7357C87.7326 19.4699 88.0201 19.1425 88.2504 18.7536C88.4805 18.3648 88.6432 17.9243 88.7385 17.4321H92.4171C92.3058 18.2973 92.0498 19.1107 91.6491 19.8726C91.2483 20.6345 90.7165 21.3113 90.054 21.9024C89.3912 22.4937 88.6135 22.956 87.7207 23.2893C86.8278 23.6226 85.8297 23.7894 84.7266 23.7894Z" fill="#FA9D00"/>
<path d="M94.9172 23.5393V5.80127H98.5601V10.6584L98.5123 15.1703L98.5601 16.944V23.5393H94.9172ZM97.5957 19.5988V16.0155C97.9687 15.3965 98.3378 14.8152 98.7029 14.2715C99.0678 13.7279 99.4567 13.1862 99.8695 12.6465C100.282 12.1069 100.746 11.5274 101.262 10.9084L105.608 5.80127H110.048L102.56 14.456L102.262 14.3727L97.5957 19.5988ZM105.953 23.5393L100.679 15.5274L102.953 12.8012L110.227 23.5393H105.953Z" fill="#FA9D00"/>
<path d="M112.262 23.5393V5.80127H115.905V20.4917H123.655V23.5393H112.262Z" fill="#FA9D00"/>
<path d="M126 23.5393V5.80127H138.072V8.84887H129.643V13.087H137.429V16.075H129.643V20.4917H138.084V23.5393H126Z" fill="#FA9D00"/>
<path d="M140.81 23.5393V5.80127H147.869C149.163 5.80127 150.246 5.99579 151.119 6.38457C151.992 6.77355 152.649 7.31127 153.089 7.99766C153.53 8.68427 153.75 9.47199 153.75 10.3608C153.75 11.0512 153.613 11.6583 153.339 12.1822C153.066 12.706 152.689 13.1346 152.208 13.4679C151.728 13.8012 151.179 14.0393 150.56 14.1822V14.3369C151.242 14.3687 151.877 14.5613 152.464 14.9143C153.052 15.2676 153.526 15.7577 153.887 16.3846C154.248 17.0116 154.429 17.7577 154.429 18.6226C154.429 19.5672 154.198 20.4104 153.738 21.1524C153.278 21.8946 152.593 22.478 151.685 22.9025C150.776 23.327 149.651 23.5394 148.31 23.5394L140.81 23.5393ZM144.441 13.2298H147.393C147.917 13.2298 148.381 13.1386 148.786 12.956C149.191 12.7735 149.508 12.5095 149.738 12.1643C149.968 11.8191 150.083 11.4125 150.083 10.9441C150.083 10.2854 149.853 9.7536 149.393 9.34888C148.933 8.94409 148.282 8.7417 147.441 8.7417H144.441L144.441 13.2298ZM144.441 20.5751H147.643C148.683 20.5751 149.451 20.3708 149.947 19.9619C150.442 19.5532 150.691 19.0036 150.691 18.3131C150.691 17.8131 150.572 17.3726 150.333 16.9917C150.095 16.6108 149.754 16.3131 149.31 16.0988C148.865 15.8846 148.337 15.7774 147.726 15.7774H144.441V20.5751Z" fill="#FA9D00"/>
<path d="M155.786 23.5393L161.893 5.80127H166.631L172.857 23.5393H168.81L165.976 14.9679C165.635 13.8568 165.288 12.6565 164.935 11.3667C164.581 10.0771 164.206 8.65835 163.81 7.11077H164.643C164.254 8.65835 163.893 10.081 163.56 11.3786C163.226 12.6762 162.893 13.8726 162.56 14.9679L159.786 23.5393H155.786ZM159.607 19.4798V16.6108H169.036V19.4798H159.607Z" fill="#FA9D00"/>
<path d="M174.869 23.5393V5.80127H178.512V20.4917H186.262V23.5393H174.869Z" fill="#FA9D00"/>
<path d="M188.607 23.5393V5.80127H192.25V20.4917H200V23.5393H188.607Z" fill="#FA9D00"/>
<path d="M58.9163 40.4427C58.0732 40.4427 57.3188 40.246 56.6534 39.8522C55.9879 39.4583 55.4647 38.8946 55.0838 38.1605C54.7029 37.4266 54.5125 36.5503 54.5125 35.5317C54.5125 34.5045 54.704 33.6241 55.087 32.89C55.47 32.1561 55.9943 31.5923 56.6599 31.1985C57.3253 30.8048 58.0775 30.6079 58.9164 30.6079C59.4469 30.6079 59.9413 30.6839 60.3993 30.8358C60.8572 30.9877 61.2648 31.2072 61.6222 31.4938C61.9795 31.7805 62.2738 32.1305 62.5049 32.5434C62.736 32.9565 62.8901 33.4239 62.9671 33.946H61.2402C61.1846 33.6594 61.0894 33.4047 60.9546 33.1822C60.8197 32.9597 60.6506 32.7703 60.4475 32.614C60.2441 32.4578 60.0151 32.3402 59.7605 32.2609C59.5058 32.1818 59.233 32.1422 58.942 32.1422C58.407 32.1422 57.9352 32.2759 57.5265 32.5434C57.1178 32.8109 56.8 33.1972 56.5732 33.7022C56.3463 34.2072 56.233 34.817 56.233 35.5317C56.233 36.2507 56.3474 36.8628 56.5764 37.3678C56.8053 37.8727 57.1231 38.2558 57.5297 38.5169C57.9363 38.7779 58.407 38.9085 58.942 38.9085C59.2331 38.9085 59.5047 38.8689 59.7573 38.7896C60.0098 38.7105 60.2377 38.5939 60.441 38.4398C60.6442 38.2857 60.8155 38.0964 60.9546 37.8717C61.0936 37.647 61.191 37.3913 61.2466 37.1045H62.9735C62.905 37.5795 62.7606 38.0183 62.5402 38.4206C62.3197 38.8229 62.0341 39.176 61.6832 39.4798C61.3322 39.7837 60.9235 40.0202 60.4571 40.1892C59.9905 40.3581 59.4769 40.4427 58.9163 40.4427Z" fill="#FA9D00"/>
<path d="M64.4692 40.3075V30.7422H70.7797V32.1931H66.1833V34.7545H70.4395V36.1862H66.1833V38.8566H70.799V40.3075L64.4692 40.3075Z" fill="#FA9D00"/>
<path d="M72.4103 40.3075V30.7422H76.0246C76.7478 30.7422 77.3609 30.8696 77.8638 31.1242C78.3667 31.3789 78.7486 31.7362 79.0097 32.1962C79.2707 32.6564 79.4013 33.1925 79.4013 33.8044C79.4013 34.4164 79.2686 34.947 79.0033 35.3964C78.7379 35.8458 78.3506 36.1925 77.8414 36.4364C77.332 36.6804 76.7115 36.8023 75.9797 36.8023H73.4118V35.3836H75.8063C76.23 35.3836 76.5788 35.3216 76.8527 35.1974C77.1266 35.0733 77.331 34.8936 77.4658 34.6582C77.6006 34.4229 77.668 34.1382 77.668 33.8044C77.668 33.462 77.6006 33.1699 77.4658 32.9281C77.331 32.6863 77.1255 32.5011 76.8495 32.3727C76.5735 32.2444 76.2236 32.1802 75.7999 32.1802H74.1244V40.3074L72.4103 40.3075ZM77.8092 40.3075L75.511 35.9742H77.3727L79.7158 40.3075H77.8092Z" fill="#FA9D00"/>
<path d="M80.454 32.1931V30.7422H88.0742V32.1931H85.1211V40.3075H83.4134V32.1931H80.454Z" fill="#FA9D00"/>
<path d="M91.1942 30.7422V40.3075H89.48V30.7422H91.1942Z" fill="#FA9D00"/>
<path d="M93.0364 40.3075V30.7422H99.2314V32.1931H94.7506V35.0048H98.8206V36.4364H94.7506V40.3075L93.0364 40.3075Z" fill="#FA9D00"/>
<path d="M102.435 30.7422V40.3075H100.721V30.7422H102.435Z" fill="#FA9D00"/>
<path d="M104.277 40.3075V30.7422H110.588V32.1931H105.991V34.7545H110.247V36.1862H105.991V38.8566H110.607V40.3075L104.277 40.3075Z" fill="#FA9D00"/>
<path d="M113.932 30.7422V40.3075H112.218V30.7422H113.932ZM115.454 40.3075H113.034V38.831H115.364C116.04 38.831 116.603 38.7069 117.052 38.4586C117.502 38.2104 117.839 37.8403 118.063 37.348C118.288 36.856 118.4 36.2438 118.4 35.512C118.4 34.7888 118.288 34.1832 118.063 33.6953C117.839 33.2073 117.506 32.8394 117.065 32.5911C116.624 32.3429 116.074 32.2188 115.415 32.2188H112.989V30.7422H115.518C116.468 30.7422 117.284 30.9339 117.967 31.3168C118.65 31.6999 119.175 32.2477 119.543 32.9602C119.911 33.6728 120.095 34.5234 120.095 35.512C120.095 36.5092 119.911 37.3651 119.543 38.0798C119.175 38.7947 118.644 39.3445 117.951 39.7297C117.258 40.1148 116.425 40.3075 115.454 40.3075Z" fill="#FA9D00"/>
<path d="M124.217 40.3075L127.568 30.7422H129.737L133.146 40.3075H131.272L129.577 35.3258C129.41 34.808 129.236 34.2314 129.054 33.5958C128.872 32.9602 128.67 32.2295 128.447 31.4035H128.832C128.614 32.2338 128.417 32.9688 128.242 33.6086C128.066 34.2484 127.899 34.8208 127.741 35.3258L126.078 40.3075H124.217ZM126.175 37.9579V36.5713H131.182V37.9579H126.175Z" fill="#FA9D00"/>
<path d="M137.89 40.4486C137.111 40.4486 136.431 40.3021 135.849 40.009C135.267 39.7159 134.815 39.3092 134.494 38.7892C134.173 38.2693 134.013 37.669 134.013 36.9885V30.7422H135.714V36.8473C135.714 37.2497 135.804 37.607 135.984 37.9194C136.163 38.2319 136.415 38.4779 136.738 38.6576C137.061 38.8373 137.445 38.9273 137.89 38.9273C138.331 38.9273 138.714 38.8373 139.039 38.6576C139.364 38.4779 139.615 38.2319 139.79 37.9194C139.966 37.607 140.054 37.2497 140.054 36.8473V30.7422H141.761V36.9885C141.761 37.669 141.601 38.2693 141.28 38.7892C140.959 39.3092 140.508 39.7159 139.928 40.009C139.349 40.3021 138.669 40.4486 137.89 40.4486Z" fill="#FA9D00"/>
<path d="M143.161 32.1931V30.7422H150.781V32.1931H147.828V40.3075H146.12V32.1931H143.161Z" fill="#FA9D00"/>
<path d="M152.187 40.3075V30.7422H153.901V34.6967H158.337V30.7422H160.051V40.3075H158.337V36.1411H153.901V40.3075H152.187Z" fill="#FA9D00"/>
<path d="M161.899 40.3075V30.7422H168.21V32.1931H163.614V34.7545H167.87V36.1862H163.614V38.8566H168.229V40.3075L161.899 40.3075Z" fill="#FA9D00"/>
<path d="M169.841 40.3075V30.7422H171.754L175.073 36.0256C175.201 36.2267 175.341 36.4611 175.493 36.7286C175.645 36.9961 175.803 37.2934 175.968 37.6209C176.133 37.9483 176.294 38.3025 176.453 38.6833L176.26 38.7795C176.23 38.4373 176.206 38.0798 176.186 37.7075C176.167 37.3351 176.152 36.98 176.141 36.6419C176.131 36.3038 176.126 36.0235 176.126 35.8009V30.7422H177.859V40.3075H175.939L172.948 35.5506C172.777 35.2767 172.606 34.9931 172.437 34.6999C172.268 34.4068 172.085 34.0741 171.889 33.7017C171.692 33.3294 171.461 32.8907 171.195 32.3857L171.439 32.3342C171.469 32.8008 171.494 33.2417 171.513 33.6567C171.532 34.0719 171.547 34.4411 171.558 34.7641C171.569 35.0874 171.574 35.3473 171.574 35.5441V40.3075H169.841Z" fill="#FA9D00"/>
<path d="M179.265 32.1931V30.7422H186.885V32.1931H183.932V40.3075H182.224V32.1931H179.265Z" fill="#FA9D00"/>
<path d="M190.005 30.7422V40.3075H188.29V30.7422H190.005Z" fill="#FA9D00"/>
<path d="M195.943 40.4427C195.099 40.4427 194.345 40.246 193.68 39.8522C193.014 39.4583 192.491 38.8946 192.11 38.1605C191.729 37.4266 191.539 36.5503 191.539 35.5317C191.539 34.5045 191.73 33.6241 192.113 32.89C192.496 32.1561 193.021 31.5923 193.686 31.1985C194.352 30.8048 195.104 30.6079 195.943 30.6079C196.473 30.6079 196.967 30.6839 197.426 30.8358C197.884 30.9877 198.291 31.2072 198.648 31.4938C199.006 31.7805 199.3 32.1305 199.531 32.5434C199.762 32.9565 199.916 33.4239 199.993 33.946H198.266C198.211 33.6594 198.116 33.4047 197.981 33.1822C197.846 32.9597 197.677 32.7703 197.474 32.614C197.27 32.4578 197.041 32.3402 196.787 32.2609C196.532 32.1818 196.259 32.1422 195.968 32.1422C195.433 32.1422 194.961 32.2759 194.553 32.5434C194.144 32.8109 193.826 33.1972 193.599 33.7022C193.373 34.2072 193.259 34.817 193.259 35.5317C193.259 36.2507 193.374 36.8628 193.603 37.3678C193.832 37.8727 194.149 38.2558 194.556 38.5169C194.963 38.7779 195.433 38.9085 195.968 38.9085C196.259 38.9085 196.531 38.8689 196.784 38.7896C197.036 38.7105 197.264 38.5939 197.467 38.4398C197.67 38.2857 197.842 38.0964 197.981 37.8717C198.12 37.647 198.217 37.3913 198.273 37.1045H200C199.931 37.5795 199.787 38.0183 199.567 38.4206C199.346 38.8229 199.06 39.176 198.71 39.4798C198.359 39.7837 197.95 40.0202 197.483 40.1892C197.017 40.3581 196.503 40.4427 195.943 40.4427Z" fill="#FA9D00"/>
<defs>
<linearGradient id="paint0_linear_61_1160" x1="15.6304" y1="41.3692" x2="40.5404" y2="19.1239" gradientUnits="userSpaceOnUse">
<stop stop-color="#FFC903"/>
<stop offset="1" stop-color="#FBF75C"/>
</linearGradient>
<linearGradient id="paint1_linear_61_1160" x1="23.2996" y1="44.5157" x2="23.2996" y2="16.2144" gradientUnits="userSpaceOnUse">
<stop stop-color="#FFC800"/>
<stop offset="1" stop-color="#FBF95F"/>
</linearGradient>
<linearGradient id="paint2_linear_61_1160" x1="13.2568" y1="39.0532" x2="29.323" y2="39.0532" gradientUnits="userSpaceOnUse">
<stop stop-color="#FFC800"/>
<stop offset="1" stop-color="#FBF95F"/>
</linearGradient>
<linearGradient id="paint3_linear_61_1160" x1="9.20348" y1="44.2039" x2="9.20348" y2="20.873" gradientUnits="userSpaceOnUse">
<stop stop-color="#FFC800"/>
<stop offset="1" stop-color="#FBF95F"/>
</linearGradient>
<linearGradient id="paint4_linear_61_1160" x1="21.4426" y1="35.4774" x2="21.4426" y2="0.0351562" gradientUnits="userSpaceOnUse">
<stop stop-color="#FFC800"/>
<stop offset="1" stop-color="#FBF95F"/>
</linearGradient>
<linearGradient id="paint5_linear_61_1160" x1="33.5083" y1="44.5328" x2="33.5083" y2="15.5845" gradientUnits="userSpaceOnUse">
<stop stop-color="#FFC800"/>
<stop offset="1" stop-color="#FBF95F"/>
</linearGradient>
<linearGradient id="paint6_linear_61_1160" x1="2.16187" y1="11.811" x2="20.3246" y2="11.811" gradientUnits="userSpaceOnUse">
<stop stop-color="#FFC800"/>
<stop offset="1" stop-color="#FBFBDF"/>
</linearGradient>
<linearGradient id="paint7_linear_61_1160" x1="20.9402" y1="4.15082" x2="27.6027" y2="4.15082" gradientUnits="userSpaceOnUse">
<stop stop-color="#FFC800"/>
<stop offset="1" stop-color="#FBF95F"/>
</linearGradient>
<linearGradient id="paint8_linear_61_1160" x1="2.40369" y1="38.2724" x2="18.4069" y2="38.2724" gradientUnits="userSpaceOnUse">
<stop stop-color="#FFC800"/>
<stop offset="1" stop-color="#FBF95F"/>
</linearGradient>
<linearGradient id="paint9_linear_61_1160" x1="22.5169" y1="30.0586" x2="44.4997" y2="30.0586" gradientUnits="userSpaceOnUse">
<stop stop-color="#FFC800"/>
<stop offset="1" stop-color="#FBF95F"/>
</linearGradient>
<linearGradient id="paint10_linear_61_1160" x1="18.4719" y1="19.5523" x2="18.4719" y2="12.7456" gradientUnits="userSpaceOnUse">
<stop stop-color="#BD7802"/>
<stop offset="1" stop-color="#C1A525"/>
</linearGradient>
<linearGradient id="paint11_linear_61_1160" x1="28.8848" y1="40.8494" x2="28.8848" y2="36.5093" gradientUnits="userSpaceOnUse">
<stop stop-color="#BD7802"/>
<stop offset="1" stop-color="#C1A525"/>
</linearGradient>
<radialGradient id="paint12_radial_61_1160" cx="0" cy="0" r="1" gradientUnits="userSpaceOnUse" gradientTransform="translate(29.1641 37.7832) scale(1.96182 1.96182)">
<stop stop-color="#001545"/>
<stop offset="1" stop-color="#000B25"/>
</radialGradient>
<linearGradient id="paint13_linear_61_1160" x1="18.8838" y1="33.3707" x2="18.8838" y2="27.3062" gradientUnits="userSpaceOnUse">
<stop stop-color="#BD7802"/>
<stop offset="1" stop-color="#C1A525"/>
</linearGradient>
<radialGradient id="paint14_radial_61_1160" cx="0" cy="0" r="1" gradientUnits="userSpaceOnUse" gradientTransform="translate(16.4717 30.8208) scale(1.57185)">
<stop stop-color="#001545"/>
<stop offset="1" stop-color="#000B25"/>
</radialGradient>
<linearGradient id="paint15_linear_61_1160" x1="40.4507" y1="30.7089" x2="40.4507" y2="24.1338" gradientUnits="userSpaceOnUse">
<stop stop-color="#BD7802"/>
<stop offset="1" stop-color="#C1A525"/>
</linearGradient>
<linearGradient id="paint16_linear_61_1160" x1="40.1176" y1="15.0465" x2="40.1176" y2="9.38086" gradientUnits="userSpaceOnUse">
<stop stop-color="#BD7802"/>
<stop offset="1" stop-color="#C1A525"/>
</linearGradient>
<linearGradient id="paint17_linear_61_1160" x1="12.6932" y1="41.3873" x2="12.6932" y2="36.729" gradientUnits="userSpaceOnUse">
<stop stop-color="#BD7802"/>
<stop offset="1" stop-color="#C1A525"/>
</linearGradient>
<radialGradient id="paint18_radial_61_1160" cx="0" cy="0" r="1" gradientUnits="userSpaceOnUse" gradientTransform="translate(20.3608 16.1489) scale(2.4736)">
<stop stop-color="#001545"/>
<stop offset="1" stop-color="#000B25"/>
</radialGradient>
<linearGradient id="paint19_linear_61_1160" x1="6.4234" y1="20.8561" x2="6.4234" y2="13.4365" gradientUnits="userSpaceOnUse">
<stop stop-color="#BD7802"/>
<stop offset="1" stop-color="#C1A525"/>
</linearGradient>
<linearGradient id="paint20_linear_61_1160" x1="19.6309" y1="6.59119" x2="19.6309" y2="2.55078" gradientUnits="userSpaceOnUse">
<stop stop-color="#BD7802"/>
<stop offset="1" stop-color="#C1A525"/>
</linearGradient>
<linearGradient id="paint21_linear_61_1160" x1="22.2945" y1="5.76678" x2="22.2945" y2="3.37451" gradientUnits="userSpaceOnUse">
<stop stop-color="#BD7802"/>
<stop offset="1" stop-color="#C1A525"/>
</linearGradient>
<linearGradient id="paint22_linear_61_1160" x1="32.5524" y1="20.2631" x2="32.5524" y2="13.7896" gradientUnits="userSpaceOnUse">
<stop stop-color="#BD7802"/>
<stop offset="1" stop-color="#C1A525"/>
</linearGradient>
</defs>
</svg>
