<svg width="59" height="43" viewBox="0 0 59 43" fill="none" xmlns="http://www.w3.org/2000/svg">
<path d="M57.9473 25.7344C57.8422 25.5724 55.328 21.7271 50.5237 17.8381C47.6996 15.5521 44.6681 13.7298 41.5131 12.4217C37.5601 10.7822 33.4037 9.95117 29.1603 9.95117C24.9169 9.95117 20.761 10.7822 16.8075 12.4217C13.6525 13.7298 10.621 15.5521 7.79694 17.8381C2.99264 21.7271 0.478392 25.5724 0.373797 25.7344C0.19197 26.0151 0.19197 26.3761 0.373797 26.6568C0.478392 26.8187 2.99264 30.664 7.79694 34.553C10.621 36.8391 13.6525 38.6613 16.8075 39.9699C20.761 41.609 24.9169 42.44 29.1603 42.44C32.002 42.44 34.823 42.0653 37.5464 41.3265C37.9988 41.2034 38.2662 40.7369 38.1431 40.2845C38.0204 39.8317 37.5535 39.5647 37.1016 39.6874C34.5233 40.3874 31.8515 40.7418 29.1603 40.7418C20.076 40.7418 13.1344 36.6784 8.91085 33.2696C5.24518 30.3114 2.9282 27.317 2.12057 26.1956C2.92865 25.0737 5.24518 22.0798 8.91085 19.1215C13.1344 15.7127 20.076 11.6494 29.1603 11.6494C38.2446 11.6494 45.1863 15.7127 49.4102 19.1215C53.0759 22.0798 55.3929 25.0742 56.2005 26.1956C54.8862 28.0191 49.5731 34.7944 40.8489 38.4067C40.4159 38.5863 40.2098 39.0828 40.3895 39.5162C40.5686 39.9491 41.0651 40.1552 41.4985 39.9756C47.0266 37.6869 51.198 34.196 53.7238 31.6711C56.4644 28.9309 57.8877 26.7486 57.9473 26.6568C58.1287 26.3761 58.1287 26.0151 57.9473 25.7344Z" fill="#FA9D00"/>
<path d="M29.1603 13.5735C22.2006 13.5735 16.5383 19.2357 16.5383 26.1955C16.5383 33.1552 22.2006 38.8175 29.1603 38.8175C36.1201 38.8175 41.7823 33.1552 41.7823 26.1955C41.7823 19.2357 36.1201 13.5735 29.1603 13.5735ZM29.1603 37.1192C23.1371 37.1192 18.2366 32.2192 18.2366 26.1955C18.2366 20.1722 23.1371 15.2717 29.1603 15.2717C35.184 15.2717 40.0845 20.1722 40.0845 26.1955C40.0845 32.2192 35.184 37.1192 29.1603 37.1192Z" fill="#FA9D00"/>
<path d="M29.1603 22.6296C27.1942 22.6296 25.5944 24.2295 25.5944 26.1956C25.5944 28.1617 27.1942 29.7615 29.1603 29.7615C31.1264 29.7615 32.7262 28.1617 32.7262 26.1956C32.7262 24.2295 31.1264 22.6296 29.1603 22.6296ZM29.1603 28.0633C28.1307 28.0633 27.2926 27.2256 27.2926 26.1956C27.2926 25.1655 28.1307 24.3279 29.1603 24.3279C30.1904 24.3279 31.0284 25.1655 31.0284 26.1956C31.0284 27.2256 30.1904 28.0633 29.1603 28.0633Z" fill="#FA9D00"/>
<path d="M29.1603 5.31007C29.6294 5.31007 30.0094 4.93008 30.0094 4.46095V1.74413C30.0094 1.275 29.6294 0.89502 29.1603 0.89502C28.6916 0.89502 28.3112 1.275 28.3112 1.74413V4.46095C28.3112 4.93008 28.6916 5.31007 29.1603 5.31007Z" fill="#FA9D00"/>
<path d="M17.5578 7.79752C17.8076 8.22958 18.3941 8.35271 18.7971 8.05614C19.1409 7.80326 19.2415 7.3178 19.0283 6.9484L17.6699 4.59568C17.4356 4.18966 16.9166 4.05064 16.5105 4.28499C16.1041 4.51933 15.9651 5.03878 16.1994 5.4448L17.5578 7.79752Z" fill="#FA9D00"/>
<path d="M39.603 8.10822C40.0042 8.33947 40.532 8.19781 40.7628 7.79752L42.1212 5.4448C42.356 5.03878 42.2166 4.51933 41.8105 4.28499C41.4045 4.05064 40.8851 4.18966 40.6507 4.59568L39.2923 6.94841C39.058 7.35443 39.197 7.87387 39.603 8.10822Z" fill="#FA9D00"/>
</svg>
